<svg xmlns="http://www.w3.org/2000/svg" xml:space="preserve" width="787.59" height="800.623" viewBox="0 0 208.383 211.831"><defs><filter id="b" width="1.199" height="1.336" x="-.1" y="-.168" style="color-interpolation-filters:sRGB"><feFlood flood-color="#1a1a1a" flood-opacity=".29" result="flood"/><feGaussianBlur in="SourceGraphic" result="blur" stdDeviation=".3"/><feOffset in="blur" result="offset"/><feComposite in="flood" in2="offset" operator="in" result="comp1"/><feComposite in="SourceGraphic" in2="comp1" result="comp2"/></filter><filter id="c" width="2.39" height="2.428" x="-.695" y="-.714" style="color-interpolation-filters:sRGB"><feFlood flood-color="#000" flood-opacity=".29" result="flood"/><feGaussianBlur in="SourceGraphic" result="blur" stdDeviation=".4"/><feOffset in="blur" result="offset"/><feComposite in="flood" in2="offset" operator="in" result="comp1"/><feComposite in="comp1" in2="comp1" operator="atop" result="comp2"/></filter><filter id="a" width="1.199" height="1.336" x="-.1" y="-.168" style="color-interpolation-filters:sRGB"><feFlood flood-color="#1a1a1a" flood-opacity=".29" result="flood"/><feGaussianBlur in="SourceGraphic" result="blur" stdDeviation=".3"/><feOffset in="blur" result="offset"/><feComposite in="flood" in2="offset" operator="in" result="comp1"/><feComposite in="SourceGraphic" in2="comp1" result="comp2"/></filter><clipPath id="d" clipPathUnits="userSpaceOnUse"><path d="M-1041.685-507.633a.52.52 0 0 0-.52.52v3.24c0 .288.232.52.52.52h6.183c.288 0 .52-.232.52-.52v-2.4l-1.382-1.36z" style="opacity:0;fill:#6d7492;fill-opacity:1;stroke:none;stroke-width:1.01213;stroke-linecap:round;stroke-linejoin:round;stroke-dasharray:none;stroke-opacity:1"/></clipPath><clipPath id="e" clipPathUnits="userSpaceOnUse"><path d="M-1041.685-507.633a.52.52 0 0 0-.52.52v3.24c0 .288.232.52.52.52h6.183c.288 0 .52-.232.52-.52v-2.4l-1.382-1.36z" style="fill:#81339e;fill-opacity:1;stroke:none;stroke-width:1.01213;stroke-linecap:round;stroke-linejoin:round;stroke-dasharray:none;stroke-opacity:1;filter:url(#a)" transform="matrix(6.46306 0 0 6.57009 6739.092 3327.918)"/></clipPath></defs><g transform="matrix(15.27975 0 0 15.53278 10756.735 8665.443)"><rect width="13.638" height="13.638" x="-706.966" y="-557.477" fill="none" rx="0" ry="0" style="fill:#131313;fill-opacity:0;fill-rule:evenodd;stroke:none;stroke-width:.27551;stroke-linecap:round;stroke-linejoin:round;stroke-dasharray:none;stroke-opacity:1;paint-order:stroke fill markers" transform="translate(2.98 -.404)"/><path d="M-1041.685-507.633a.52.52 0 0 0-.52.52v3.24c0 .288.232.52.52.52h6.183c.288 0 .52-.232.52-.52v-2.4l-1.382-1.36z" style="fill:#81339e;fill-opacity:1;stroke:none;stroke-width:1.01213;stroke-linecap:round;stroke-linejoin:round;stroke-dasharray:none;stroke-opacity:1;filter:url(#b)" transform="translate(938.04 244.97)scale(1.57444)"/><path d="M-1036.371-507.618v1.344h1.381l-1.367-1.344z" clip-path="url(#d)" style="fill:#642778;fill-opacity:1;stroke:none;stroke-width:.573223;stroke-linecap:round;stroke-linejoin:round;stroke-dasharray:none;stroke-opacity:1;filter:url(#c)" transform="translate(938.04 244.97)scale(1.57444)"/><path d="M-1038.28-507.633v1.865h3.298l-3.263-1.865z" style="fill:#642778;fill-opacity:1;stroke:none;stroke-width:1.04308;stroke-linecap:round;stroke-linejoin:round;stroke-dasharray:none;stroke-opacity:1" transform="matrix(.65958 0 0 1.135 -8.828 21.922)"/><g clip-path="url(#e)" style="fill:none;stroke:#431851;stroke-width:2;stroke-linecap:round;stroke-linejoin:round;stroke-opacity:1" transform="matrix(.2436 0 0 .23964 -703.646 -552.526)"><path d="M2 10v3M6 6v11M10 3v18M14 8v7M18 5v13M22 10v3" style="stroke:#431851;stroke-opacity:1"/></g></g></svg>