<svg xmlns="http://www.w3.org/2000/svg" xml:space="preserve" width="787.59" height="800.623" viewBox="0 0 208.383 211.831"><defs><filter id="a" width="1.199" height="1.336" x="-.1" y="-.168" style="color-interpolation-filters:sRGB"><feFlood flood-color="#1a1a1a" flood-opacity=".29" result="flood"/><feGaussianBlur in="SourceGraphic" result="blur" stdDeviation=".3"/><feOffset in="blur" result="offset"/><feComposite in="flood" in2="offset" operator="in" result="comp1"/><feComposite in="SourceGraphic" in2="comp1" result="comp2"/></filter><filter id="b" width="2.39" height="2.428" x="-.695" y="-.714" style="color-interpolation-filters:sRGB"><feFlood flood-color="#000" flood-opacity=".29" result="flood"/><feGaussianBlur in="SourceGraphic" result="blur" stdDeviation=".4"/><feOffset in="blur" result="offset"/><feComposite in="flood" in2="offset" operator="in" result="comp1"/><feComposite in="comp1" in2="comp1" operator="atop" result="comp2"/></filter><clipPath id="c" clipPathUnits="userSpaceOnUse"><path d="M-1041.685-507.633a.52.52 0 0 0-.52.52v3.24c0 .288.232.52.52.52h6.183c.288 0 .52-.232.52-.52v-2.4l-1.382-1.36z" style="opacity:0;fill:#6d7492;fill-opacity:1;stroke:none;stroke-width:1.01213;stroke-linecap:round;stroke-linejoin:round;stroke-dasharray:none;stroke-opacity:1"/></clipPath></defs><g transform="matrix(15.27975 0 0 15.53278 10756.735 8665.443)"><rect width="13.638" height="13.638" x="-706.966" y="-557.477" fill="none" rx="0" ry="0" style="fill:#131313;fill-opacity:0;fill-rule:evenodd;stroke:none;stroke-width:.27551;stroke-linecap:round;stroke-linejoin:round;stroke-dasharray:none;stroke-opacity:1;paint-order:stroke fill markers" transform="translate(2.98 -.404)"/><path d="M-1041.685-507.633a.52.52 0 0 0-.52.52v3.24c0 .288.232.52.52.52h6.183c.288 0 .52-.232.52-.52v-2.4l-1.382-1.36z" style="fill:#81339e;fill-opacity:1;stroke:none;stroke-width:1.01213;stroke-linecap:round;stroke-linejoin:round;stroke-dasharray:none;stroke-opacity:1;filter:url(#a)" transform="translate(938.04 244.97)scale(1.57444)"/><path d="M-1036.371-507.618v1.344h1.381l-1.367-1.344z" clip-path="url(#c)" style="fill:#642778;fill-opacity:1;stroke:none;stroke-width:.573223;stroke-linecap:round;stroke-linejoin:round;stroke-dasharray:none;stroke-opacity:1;filter:url(#b)" transform="translate(938.04 244.97)scale(1.57444)"/><path d="M-1038.28-507.633v1.865h3.298l-3.263-1.865z" style="fill:#642778;fill-opacity:1;stroke:none;stroke-width:1.04308;stroke-linecap:round;stroke-linejoin:round;stroke-dasharray:none;stroke-opacity:1" transform="matrix(.65958 0 0 1.135 -8.828 21.922)"/><path d="M-1032.975-508.007q-.119 0-.174-.08-.055-.081-.055-.216 0-.187.094-.36.047-.086.13-.141.083-.056.189-.056.112 0 .331.04l.075.014-.122.525-.044.25-.216.007.02-.127q-.066.09-.155.127-.037.016-.073.016zm.19-.667q-.062 0-.109.063-.09.12-.09.308 0 .056.018.084.018.026.055.026.04 0 .086-.036.05-.035.081-.071l.033-.038.075-.314q-.107-.022-.15-.022zm.65.667q-.2 0-.2-.23 0-.063.035-.205l.09-.398h.219l-.088.382q-.03.122-.03.17 0 .046.014.07.015.022.045.022.055 0 .136-.073l.026-.025.125-.546h.218l-.187.813h-.208l.01-.08q-.037.038-.099.069-.06.03-.107.03zm.858 0q-.116 0-.176-.075-.058-.075-.058-.213 0-.139.044-.264.045-.125.142-.211.096-.088.224-.088.055 0 .163.026l.032.008.08-.342h.218l-.264 1.139h-.211l.015-.085q-.033.038-.094.072-.062.032-.114.032zm.332-.643q-.094-.023-.155-.023-.059 0-.104.065-.044.064-.065.148-.02.085-.02.163 0 .104.082.104.026 0 .072-.03.047-.028.08-.058l.033-.029zm.252.623.187-.813h.218l-.187.813zm.205-.898.052-.223h.22l-.05.223zm.642.067q.32 0 .32.307 0 .132-.043.252-.044.12-.142.207-.096.085-.226.085-.32 0-.32-.308 0-.13.047-.252t.143-.206q.098-.085.221-.085zm-.09.665q.087 0 .14-.11.055-.113.055-.25 0-.12-.104-.12-.088 0-.142.113-.054.11-.054.248 0 .12.104.12" aria-label="audio" style="font-style:italic;font-weight:700;font-size:1.62646px;font-family:&quot;Titillium Web&quot;;-inkscape-font-specification:&quot;Titillium Web Bold Italic&quot;;fill:#431851;fill-rule:evenodd;stroke-width:.0192102;stroke-linecap:round;stroke-linejoin:round;paint-order:stroke fill markers" transform="matrix(1.58743 0 0 1.56157 938.04 244.97)"/><g style="fill:none;stroke:#431851;stroke-width:2;stroke-linecap:round;stroke-linejoin:round;stroke-opacity:1"><path d="M2 10v3M6 6v11M10 3v18M14 8v7M18 5v13M22 10v3" style="stroke:#431851;stroke-opacity:1" transform="matrix(.06793 0 0 .06683 -702.25 -553.694)"/></g></g></svg>