<svg xmlns="http://www.w3.org/2000/svg" xml:space="preserve" width="755.906" height="200mm" viewBox="0 0 200 200"><defs><filter id="a" width="1.29" height="1.584" x="-.145" y="-.292" style="color-interpolation-filters:sRGB"><feFlood flood-color="#1a1a1a" flood-opacity=".29" result="flood"/><feGaussianBlur in="SourceGraphic" result="blur" stdDeviation=".3"/><feOffset in="blur" result="offset"/><feComposite in="flood" in2="offset" operator="in" result="comp1"/><feComposite in="SourceGraphic" in2="comp1" result="comp2"/></filter><filter id="b" width="1.236" height="1.6" x="-.118" y="-.3" style="color-interpolation-filters:sRGB"><feFlood flood-color="#1a1a1a" flood-opacity=".29" result="flood"/><feGaussianBlur in="SourceGraphic" result="blur" stdDeviation=".3"/><feOffset in="blur" result="offset"/><feComposite in="flood" in2="offset" operator="in" result="comp1"/><feComposite in="SourceGraphic" in2="comp1" result="comp2"/></filter><filter id="c" width="1.199" height="1.336" x="-.1" y="-.168" style="color-interpolation-filters:sRGB"><feFlood flood-color="#1a1a1a" flood-opacity=".29" result="flood"/><feGaussianBlur in="SourceGraphic" result="blur" stdDeviation=".3"/><feOffset in="blur" result="offset"/><feComposite in="flood" in2="offset" operator="in" result="comp1"/><feComposite in="SourceGraphic" in2="comp1" result="comp2"/></filter></defs><g transform="translate(10324.116 8181.45)scale(14.66522)"><rect width="13.638" height="13.638" x="-706.966" y="-557.477" fill="none" rx="0" ry="0" style="fill:#000;fill-opacity:0;fill-rule:evenodd;stroke:none;stroke-width:.27551;stroke-linecap:round;stroke-linejoin:round;stroke-dasharray:none;stroke-opacity:1;paint-order:stroke fill markers" transform="translate(2.98 -.404)"/><g transform="translate(383.513 324.76)scale(1.5744)"><rect width="4.964" height="2.467" x="-688.894" y="-559.552" rx=".52" ry=".52" style="fill:#80380b;fill-opacity:1;stroke:none;stroke-width:1.0144;stroke-linecap:round;stroke-linejoin:round;stroke-dasharray:none;stroke-opacity:1;filter:url(#a)"/><rect width="6.101" height="2.401" x="-689.463" y="-558.677" rx=".52" ry=".52" style="fill:#a55010;fill-opacity:1;stroke:none;stroke-width:1.04308;stroke-linecap:round;stroke-linejoin:round;stroke-dasharray:none;stroke-opacity:1;filter:url(#b)"/><rect width="7.222" height="4.28" x="-690.023" y="-557.576" rx=".52" ry=".52" style="fill:#d36d14;fill-opacity:1;stroke:none;stroke-width:1.01213;stroke-linecap:round;stroke-linejoin:round;stroke-dasharray:none;stroke-opacity:1;filter:url(#c)"/><path d="M-694.797-552.045q-.02 0-.034-.012-.027-.022-.015-.056l.012-.041.03-.09.016-.049.012-.039-.113.043-.14.051-.14.053q-.02.007-.038-.002-.02-.01-.03-.03-.006-.02.004-.038.009-.02.029-.03l.159-.056.152-.056.115-.045.044-.017.017-.002q.01-.002.015.002.024.003.035.027.009.014.007.036 0 .02-.01.06-.004.022-.013.05l-.019.06-.003.012-.003.012q.069-.038.168-.079.019-.009.037 0 .02.007.028.026.01.018.002.039-.01.02-.028.029-.077.034-.138.065-.06.03-.096.05l-.036.018q-.01.01-.025.01zm.503-.051q-.01 0-.014-.002-.027-.007-.04-.02-.01-.016-.013-.025-.012-.037.009-.076.02-.041.053-.086l.019-.029.017-.03.005-.006-.026.01-.032.02q-.031.02-.065.05l-.07.062-.02.015q-.008.01-.016.017-.016.014-.036.014-.022-.002-.036-.019-.015-.015-.014-.036.002-.022.017-.036l.02-.017q.008-.009.016-.015.055-.05.108-.09.053-.043.104-.066.052-.022.1-.009.028.007.04.024.014.016.016.028.015.037-.007.08-.022.04-.057.09l-.009.012q-.003.007-.009.014l.067-.025.1-.038q.021-.007.04.003.02.009.026.03.009.018-.002.038-.009.02-.027.028l-.1.034-.075.027-.03.012-.023.007q-.012.003-.02.007l-.017.002zm.47 0q-.01 0-.014-.002-.027-.007-.04-.02-.01-.016-.013-.025-.012-.037.01-.076.02-.041.052-.086l.019-.029.017-.03.005-.006-.026.01-.032.02q-.031.02-.065.05l-.07.062-.019.015-.017.017q-.016.014-.036.014-.022-.002-.036-.019-.015-.015-.014-.036.002-.022.017-.036l.02-.017q.008-.009.016-.015.055-.05.108-.09.053-.043.104-.066.052-.022.1-.009.029.007.04.024.014.016.016.028.015.037-.007.08-.022.04-.056.09l-.01.012q-.002.007-.008.014l.066-.025.1-.038q.022-.007.04.003.02.009.026.03.009.018-.002.038-.009.02-.027.028l-.1.034-.075.027-.03.012-.023.007q-.012.003-.02.007l-.017.002zm.47 0q-.01 0-.014-.002-.027-.007-.04-.02-.01-.016-.013-.025-.012-.037.01-.076.02-.041.052-.086l.019-.029.017-.03.005-.006-.026.01-.032.02q-.03.02-.065.05l-.07.062-.019.015-.017.017q-.015.014-.036.014-.022-.002-.036-.019-.015-.015-.014-.036.002-.022.018-.036l.018-.017.017-.015q.055-.05.108-.09.053-.043.104-.066.052-.022.1-.009.029.007.04.024.014.016.016.028.015.037-.007.08-.022.04-.056.09l-.01.012q-.002.007-.008.014l.066-.025.1-.038q.022-.007.04.003.02.009.026.03.009.018-.002.038-.009.02-.027.028l-.1.034-.075.027-.03.012-.023.007q-.012.003-.02.007l-.017.002zm.843.034q-.012 0-.023-.003-.032-.007-.046-.04-.01-.028.005-.064.017-.036.045-.08l.018-.031.018-.031.005-.01.003-.008q-.052-.01-.12-.003-.067.003-.15.025-.074.02-.16.05-.083.03-.177.07-.02.007-.038 0-.019-.007-.027-.026-.01-.018-.002-.039t.027-.029q.096-.043.183-.073.089-.033.168-.052.21-.053.343-.017.04.01.055.048t-.007.084-.053.096l-.005.009-.007.012q.04-.01.116-.035t.212-.075q.019-.007.038.003.02.01.027.03.009.018 0 .039-.009.018-.03.027l-.144.05q-.065.022-.117.037l-.104.03q-.036.006-.055.006zm1.006 0q-.012 0-.022-.003-.032-.007-.046-.04-.01-.028.005-.064.017-.036.044-.08l.02-.031.016-.031.005-.01.003-.008q-.05-.01-.12-.003-.066.003-.15.025-.073.02-.159.05-.083.03-.177.07-.02.007-.038 0-.019-.007-.027-.026-.01-.018-.002-.039t.027-.029q.096-.043.183-.073.089-.033.167-.052.21-.053.344-.017.04.01.055.048t-.007.084q-.023.046-.053.096l-.005.009-.007.012q.039-.01.116-.035t.212-.075q.019-.007.037.003.021.01.028.03.009.018 0 .039-.01.018-.031.027l-.144.05q-.065.022-.116.037l-.104.03q-.036.006-.055.006z" aria-label="Lights" style="font-size:1.70944px;font-family:&quot;Redacted Script&quot;;-inkscape-font-specification:&quot;Redacted Script&quot;;fill:#722f0d;stroke:#722f0d;stroke-width:.079779;stroke-linecap:round;stroke-linejoin:round" transform="scale(.99182 1.00825)"/><g aria-label="a collection of all light sources" style="font-style:italic;font-weight:700;font-size:.988687px;font-family:&quot;Titillium Web&quot;;-inkscape-font-specification:&quot;Titillium Web Bold Italic&quot;;letter-spacing:0;word-spacing:-.267363px;fill:#722f0d;stroke-width:.0210924;stroke-linecap:round;stroke-linejoin:round"><path d="m-695.198-551.486-.014-.002-.014-.002q-.018-.005-.025-.02-.009-.02 0-.048.01-.029.032-.073l.008-.018.01-.019q-.014.005-.029.017l-.028.023q-.01.007-.022.006-.013-.002-.02-.011-.008-.01-.006-.022.001-.012.01-.02l.029-.023.031-.02q.041-.02.075-.01.015.003.023.02.008.015 0 .039t-.028.064l-.011.024-.01.023-.003.007-.002.006q.02-.003.06-.021t.109-.073q.036-.029.066-.056l.048-.045.017-.018q.012-.014.029-.009.008.001.013.007l.008.01q.007.014 0 .033-.004.017-.02.058l-.013.026-.01.023q0 .004-.002.007v.004q.018-.003.039-.015.021-.014.041-.031l.035-.029q.01-.009.022-.008t.02.01q.008.01.007.022 0 .012-.01.02-.03.027-.063.051-.032.024-.064.036-.032.01-.065.003-.015-.007-.022-.02t-.004-.03.012-.042q-.011.01-.023.018l-.024.02q-.136.108-.212.108zm.739 0-.014-.002-.014-.002q-.018-.005-.024-.02-.01-.02 0-.048.01-.029.031-.073l.008-.018.01-.019q-.014.005-.029.017l-.028.023q-.01.007-.022.006-.013-.002-.02-.011-.008-.01-.006-.022.001-.012.01-.02l.029-.023.032-.02q.04-.02.074-.01.016.003.023.02.008.015 0 .039t-.028.064l-.011.024-.01.023-.003.007-.002.006q.02-.003.06-.021t.109-.073q.037-.029.066-.056l.048-.045.017-.018q.012-.014.03-.009.007.001.012.007l.008.01q.007.014 0 .033-.004.017-.02.058l-.013.026-.01.023q0 .004-.002.007v.004q.018-.003.039-.015.022-.014.041-.031l.035-.029q.01-.009.022-.008t.02.01q.008.01.007.022 0 .012-.01.02-.03.027-.063.051-.031.024-.064.036-.032.01-.064.003-.016-.007-.023-.02t-.004-.03.012-.042q-.011.01-.023.018-.01.01-.024.02-.136.108-.212.108zm.672-.056q-.012 0-.02-.007-.015-.013-.009-.033l.007-.024.018-.051.01-.029.006-.022-.065.024-.081.03-.081.03q-.011.005-.022 0-.012-.006-.017-.018-.004-.01.002-.022.005-.012.017-.017l.092-.032.088-.033.066-.025.026-.01.01-.001h.009q.014.003.02.016.005.008.004.021 0 .012-.005.035l-.008.028-.011.035-.002.007-.002.007q.04-.022.097-.045.01-.005.021 0 .012.004.016.014.006.011.001.023t-.016.017l-.08.037-.055.03-.02.01q-.007.005-.016.005zm.385 0q-.012 0-.02-.007-.016-.013-.009-.033l.007-.024.018-.051.009-.029.007-.022-.065.024-.082.03-.08.03q-.012.005-.022 0-.012-.006-.017-.018-.004-.01.002-.022.005-.012.017-.017l.092-.032.088-.033.066-.025.025-.01.01-.001h.01q.013.003.02.016.004.008.003.021 0 .012-.005.035l-.008.028-.01.035-.003.007-.002.007q.04-.022.097-.045.011-.005.022 0 .012.004.016.014.006.011 0 .023-.004.012-.015.017l-.08.037-.056.03-.02.01q-.006.005-.015.005zm.384 0q-.012 0-.02-.007-.015-.013-.008-.033l.007-.024.017-.051.01-.029.006-.022-.065.024-.08.03-.082.03q-.01.005-.022 0-.012-.006-.017-.018-.004-.01.002-.022.005-.012.017-.017l.092-.032.088-.033.066-.025.026-.01.01-.001h.01q.013.003.019.016.005.008.004.021 0 .012-.005.035l-.008.028-.011.035-.002.007-.002.007q.04-.022.097-.045.01-.005.022 0 .011.004.015.014.006.011.001.023t-.015.017l-.08.037-.056.03-.02.01q-.007.005-.016.005zm.239.056-.014-.002-.014-.002q-.018-.005-.025-.02-.009-.02 0-.048.01-.029.032-.073l.008-.018.009-.019q-.013.005-.028.017-.014.01-.028.023-.01.007-.022.006-.013-.002-.02-.011-.008-.01-.006-.022.001-.012.01-.02l.029-.023.031-.02q.04-.02.075-.01.015.003.023.02.008.015 0 .039t-.028.064l-.011.024-.01.023-.003.007-.002.006q.02-.003.06-.021t.109-.073q.036-.029.066-.056t.047-.045l.018-.018q.012-.014.029-.009.008.001.013.007l.008.01q.007.014 0 .033-.004.017-.021.058l-.012.026-.01.023q0 .004-.002.007v.004q.018-.003.039-.015.021-.014.041-.031l.035-.029q.01-.009.021-.008t.021.01q.008.01.007.022 0 .012-.01.02-.03.027-.063.051-.032.024-.064.036-.032.01-.065.003-.015-.007-.022-.02t-.004-.03.012-.042q-.011.01-.023.018l-.024.02q-.136.108-.212.108zm.526 0-.014-.002-.014-.002q-.018-.005-.025-.02-.009-.02 0-.048.01-.029.032-.073l.008-.018.009-.019q-.013.005-.028.017-.014.01-.028.023-.01.007-.022.006-.013-.002-.021-.011-.007-.01-.005-.022.001-.012.01-.02l.029-.023.031-.02q.04-.02.075-.01.015.003.023.02.008.015 0 .039t-.028.064l-.011.024-.01.023-.003.007-.002.006q.02-.003.06-.021t.109-.073q.036-.029.066-.056t.047-.045l.018-.018q.012-.014.029-.009.008.001.013.007l.008.01q.007.014 0 .033-.004.017-.021.058l-.012.026-.01.023q0 .004-.002.007v.004q.018-.003.039-.015.021-.014.041-.031l.035-.029q.01-.009.022-.008t.02.01.007.022q0 .012-.01.02-.03.027-.063.051-.032.024-.064.036-.032.01-.065.003-.015-.007-.022-.02t-.004-.03.012-.042q-.011.01-.023.018l-.024.02q-.136.108-.212.108zm.794-.066q-.007 0-.013-.002-.02-.004-.027-.023-.006-.017.003-.037.01-.021.026-.047l.01-.018.01-.017.004-.005q0-.003.002-.005-.03-.005-.07-.002-.038.002-.087.014-.042.011-.092.029-.048.017-.102.04-.011.005-.022 0-.011-.003-.016-.014t0-.023q.004-.013.015-.017.055-.024.106-.042.051-.02.097-.03.121-.03.198-.01.023.006.032.028t-.004.048-.03.056l-.004.005-.004.007q.023-.005.068-.02l.122-.044q.011-.004.022.002.012.005.016.017.005.011 0 .023-.005.01-.018.016l-.083.028-.067.022-.06.017q-.022.004-.032.004zm.366-.02h-.008q-.015-.005-.022-.013l-.008-.014q-.007-.021.005-.044.012-.024.03-.05l.011-.016.01-.017.003-.004-.015.006q-.008.004-.018.012-.018.01-.038.029-.02.016-.04.035-.006.004-.011.01l-.01.01q-.01.007-.021.007-.013 0-.021-.01-.01-.01-.008-.022 0-.012.01-.02l.01-.01.01-.01q.032-.028.063-.052.03-.024.06-.037t.058-.005q.017.004.023.013.008.01.01.016.008.022-.005.047-.012.023-.032.052l-.005.007-.005.008.038-.015.058-.021q.013-.004.023.002.011.005.015.016.005.011 0 .023-.006.01-.017.016l-.057.02-.043.015-.018.007-.013.004-.012.004zm.366.03q-.012 0-.02-.007-.015-.013-.009-.033l.007-.023.018-.052.01-.029.006-.022-.065.024-.081.03-.081.03q-.011.005-.022 0-.012-.006-.017-.018-.004-.01.002-.022.005-.012.017-.016l.092-.033.088-.033.066-.025.026-.01.01-.001h.009q.014.003.02.016.005.008.004.021 0 .012-.005.035l-.008.029-.011.034-.002.007-.002.007q.04-.022.097-.045.01-.005.021 0 .012.004.016.014.006.011.001.023t-.016.017l-.08.038-.055.028-.021.011q-.006.005-.015.005zm.385 0q-.012 0-.02-.007-.016-.013-.009-.033l.007-.023.018-.052.009-.029.007-.022-.066.024-.08.03-.082.03q-.01.005-.021 0-.012-.006-.017-.018-.004-.01.002-.022.005-.012.017-.016l.091-.033.088-.033.067-.025.025-.01.01-.001h.01q.013.003.02.016.004.008.003.021 0 .012-.005.035l-.008.029-.01.034-.003.007-.002.007q.04-.022.097-.045.011-.005.022 0 .012.004.016.014.006.011 0 .023-.004.012-.015.017-.045.02-.08.038l-.056.028-.02.011q-.006.005-.015.005zM-695.052-551.132q-.012 0-.02-.007-.016-.013-.009-.032l.007-.024.018-.052.01-.028.006-.023-.065.025-.081.03-.081.03q-.011.004-.022 0-.012-.007-.017-.019-.004-.01.002-.021.005-.012.017-.017l.092-.033.088-.032.066-.026.026-.01.01-.001h.009q.014.003.02.017.005.008.004.02 0 .012-.005.035l-.008.029-.011.034-.002.007-.002.007q.04-.021.097-.045.01-.005.021 0 .012.004.016.015.006.01.001.022t-.016.017l-.08.038-.055.029-.021.01q-.006.005-.015.005zm.29-.03h-.007q-.016-.005-.023-.012l-.008-.014q-.007-.022.005-.045t.03-.05q.007-.007.012-.016l.01-.017.003-.004-.015.006-.02.012q-.017.011-.037.029l-.04.035-.011.01-.01.01q-.009.007-.02.007-.014 0-.022-.01-.009-.01-.008-.021.001-.013.01-.021l.011-.01.01-.01q.032-.028.063-.051.03-.025.06-.038t.057-.005q.017.004.024.014.008.009.009.016.009.021-.004.046t-.033.052l-.005.007-.005.008.039-.014.057-.022q.013-.004.024.002.01.005.015.017.005.01-.001.022-.005.011-.016.016l-.057.02-.044.016-.018.007-.013.004-.011.004zm.433.086q-.007 0-.013-.002l-.014-.002q-.018-.005-.025-.02-.009-.02 0-.048.01-.029.032-.073l.008-.018.009-.019q-.013.005-.028.017l-.029.023q-.01.007-.022.006-.012-.002-.02-.011-.007-.01-.005-.022 0-.012.01-.02l.028-.022q.016-.012.032-.02.04-.02.074-.011.016.003.024.02.008.016-.001.04-.008.023-.028.064l-.01.023-.01.023-.004.007-.002.006q.021-.003.06-.02.041-.02.11-.074.036-.029.065-.055l.048-.046.018-.018q.012-.013.028-.009.008.001.013.007l.008.01q.007.014.001.033-.005.018-.021.058l-.012.026-.01.024-.002.007-.001.004q.019-.003.04-.016l.04-.03q.022-.017.035-.03.01-.008.022-.007.012 0 .02.01t.008.021q0 .012-.01.021-.03.027-.063.05-.032.024-.065.036-.031.011-.064.003-.016-.007-.023-.02t-.004-.03.012-.042q-.01.01-.023.019l-.023.02q-.137.107-.213.107zm.673-.056q-.012 0-.02-.007-.016-.013-.01-.033l.008-.023.018-.052.009-.028.007-.023-.066.025q-.038.013-.08.03l-.082.03q-.01.004-.021-.001-.012-.006-.017-.018-.004-.01.002-.021.005-.012.017-.017l.091-.033.088-.032.067-.026.025-.01.01-.001h.01q.013.003.02.017.004.008.003.02 0 .012-.005.035l-.008.029-.01.034-.003.007-.002.007q.04-.021.097-.045.011-.005.022 0 .012.004.016.015.006.01 0 .022-.004.012-.015.017-.045.02-.08.038l-.056.028-.02.011q-.006.005-.015.005zm.384 0q-.012 0-.02-.007-.015-.013-.009-.033l.007-.023.018-.052.01-.028.006-.023-.065.025q-.039.013-.081.03l-.081.03q-.011.004-.022-.001-.012-.006-.017-.018-.004-.01.002-.021.005-.012.017-.017l.092-.033.088-.032.066-.026.026-.01.01-.001h.009q.014.003.02.017.005.008.004.02 0 .012-.005.035l-.008.029-.011.034-.002.007-.002.007q.04-.021.097-.045.01-.005.021 0 .012.004.016.015.006.01.001.022t-.016.017l-.08.038-.055.028-.02.011q-.007.005-.016.005zm.598 0q-.012 0-.02-.007-.016-.013-.009-.033l.007-.023.018-.052.009-.028.007-.023-.065.025q-.039.013-.081.03l-.081.03q-.011.004-.022-.001-.012-.006-.017-.018-.004-.01.002-.021.005-.012.017-.017l.092-.033.088-.032.066-.026.026-.01.01-.001h.009q.014.003.02.017.005.008.004.02 0 .012-.005.035l-.008.029-.011.034-.002.007-.002.007q.04-.021.097-.045.01-.005.021 0 .012.004.016.015.006.01.001.022t-.016.017l-.08.038-.055.028-.021.011q-.006.005-.015.005zm.29-.03h-.007q-.016-.005-.023-.013l-.008-.013q-.007-.022.005-.045.012-.024.03-.05.007-.007.012-.016l.01-.017.003-.004-.015.006-.019.012q-.018.01-.038.029l-.04.035-.011.01-.01.01q-.009.007-.02.007-.014 0-.022-.01-.009-.01-.008-.021.001-.013.01-.021l.011-.01.01-.01q.032-.028.063-.052.03-.024.06-.037t.057-.005q.017.004.024.014.008.009.009.015.009.022-.004.047-.013.024-.033.052l-.005.007-.005.008.039-.014.057-.022q.013-.004.024.002.01.005.015.017.005.01-.001.022-.005.011-.016.016l-.057.02-.044.016-.018.007-.012.004-.012.004zm.273 0h-.008q-.016-.005-.023-.013l-.008-.013q-.007-.022.005-.045.012-.024.03-.05.007-.007.011-.016l.01-.017.003-.004-.014.006-.02.012q-.017.01-.037.029l-.04.035-.011.01-.01.01q-.01.007-.02.007-.014 0-.022-.01-.009-.01-.008-.021.001-.013.01-.021l.011-.01.01-.01.062-.052q.031-.024.06-.037.03-.013.058-.005.017.004.024.014.008.009.009.015.009.022-.004.047-.013.024-.033.052l-.005.007-.005.008.039-.014.057-.022q.013-.004.024.002.01.005.015.017.005.01-.001.022-.005.011-.016.016l-.057.02-.044.016-.018.007-.013.004-.011.004zm.271 0h-.008q-.015-.005-.022-.013l-.008-.013q-.007-.022.005-.045.012-.024.03-.05l.011-.016.01-.017.003-.004-.014.006-.02.012q-.017.01-.037.029l-.04.035-.011.01-.01.01q-.01.007-.021.007-.013 0-.02-.01-.01-.01-.009-.021.001-.013.01-.021l.011-.01.01-.01.062-.052q.031-.024.06-.037.03-.013.058-.005.017.004.024.014.008.009.009.015.009.022-.004.047-.013.024-.033.052l-.005.007-.005.008.039-.014q.023-.01.057-.022.013-.004.024.002.01.005.015.017.005.01-.001.022-.005.011-.016.016l-.058.02-.043.016-.018.007-.013.004-.012.004zm.488.02q-.007 0-.013-.002-.019-.004-.027-.023-.006-.016.003-.037t.026-.047l.01-.017q.007-.01.01-.018l.004-.005q0-.003.002-.005-.03-.005-.07-.002-.038.002-.086.015-.043.01-.092.028-.049.017-.103.04-.01.005-.022 0-.01-.003-.016-.014t0-.023q.004-.013.015-.017.056-.024.106-.042.051-.019.097-.03.122-.03.199-.01.022.006.031.028t-.004.048-.03.056l-.003.005-.004.007q.022-.005.067-.02l.122-.043q.011-.004.022.002.012.005.016.016.005.011 0 .023-.005.01-.018.016l-.083.029-.067.021-.06.017q-.021.004-.032.004zM-694.93-550.781q-.007 0-.013-.002-.019-.004-.027-.023-.006-.017.003-.038t.026-.046l.01-.018q.007-.01.01-.018l.004-.005q0-.003.002-.005-.03-.005-.07-.002-.038.002-.087.015-.042.01-.091.029-.049.016-.103.04-.011.004-.022 0t-.016-.015 0-.022q.004-.013.015-.017.055-.025.106-.043t.097-.03q.121-.03.198-.01.023.007.032.028t-.004.049q-.013.026-.03.055l-.004.005-.004.007q.023-.005.068-.02.044-.014.122-.043.011-.004.022.002.012.005.016.017.005.01 0 .022t-.018.016l-.083.029-.067.022q-.04.012-.06.016-.021.004-.032.004zm.46.01q-.011 0-.02-.007-.015-.013-.008-.033l.007-.024.017-.051.01-.029.006-.023-.065.025-.08.03-.082.03q-.01.005-.022 0-.012-.006-.016-.018t.002-.022q.005-.012.016-.017l.092-.032.088-.033.066-.026.026-.01h.01q.005-.002.01 0 .013.002.019.016.005.008.004.02 0 .013-.005.035l-.008.03-.011.034-.002.007-.002.007q.04-.022.097-.046.01-.005.022 0 .012.004.015.015.006.011.001.023t-.015.017l-.08.037-.056.029-.02.01q-.007.006-.016.006zm.284.058-.01-.001-.01-.001q-.013-.004-.02-.017-.005-.008-.005-.022t.01-.045.028-.094l-.05.019-.058.021q-.01.004-.021 0-.012-.007-.017-.018-.004-.011.002-.022.005-.012.017-.017l.079-.03.061-.022.024-.01q.01-.003.019 0 .013.003.018.014t.003.016q0 .007-.003.015l-.003.009q0 .004-.003.01-.007.017-.014.042l-.015.048-.008.024-.005.017q.019-.004.054-.022l.065-.039.073-.047.015-.01q.01-.005.016-.011.011-.007.023-.004.013.002.02.013t.004.021q-.002.012-.013.02l-.017.011-.017.01q-.037.026-.073.048t-.067.04q-.064.034-.102.034zm.608-.068q-.007 0-.013-.002-.018-.004-.026-.023-.006-.017.003-.038l.025-.046.011-.018.01-.018.003-.005.002-.005q-.03-.005-.069-.002-.038.002-.087.015-.042.011-.092.029-.048.017-.103.04-.01.004-.021 0t-.016-.015q-.006-.01-.001-.022.005-.013.016-.017.055-.025.105-.043.052-.018.097-.03.122-.03.199-.01.023.007.032.028t-.004.049-.031.055l-.003.005-.004.007q.023-.005.067-.02t.123-.043q.01-.004.021.002.012.005.016.017.005.01 0 .022t-.018.016l-.083.029-.067.022-.06.017q-.02.004-.032.004zm.315.066-.014-.002-.014-.002q-.018-.005-.025-.02-.009-.02 0-.048.01-.03.032-.074l.008-.017.009-.02q-.013.006-.028.018l-.028.022q-.01.007-.022.006-.013-.002-.021-.01-.007-.01-.005-.022.001-.012.01-.021l.029-.022q.016-.012.031-.02.04-.02.075-.01.015.002.023.02.008.015 0 .039t-.028.064l-.011.024-.01.023-.003.007-.002.006q.02-.003.06-.021t.109-.073l.066-.056.047-.045.018-.018q.012-.014.029-.01.008.002.013.008l.008.01q.007.014 0 .032-.004.018-.021.059l-.012.025-.01.024q0 .004-.002.007v.004q.018-.003.039-.016t.041-.03l.035-.029q.01-.009.021-.008t.021.01q.008.01.007.022 0 .012-.01.02-.03.027-.063.051-.032.024-.064.036-.032.01-.065.003-.016-.007-.022-.02t-.004-.03.011-.042q-.01.01-.022.018l-.024.02q-.136.108-.212.108zm.526 0-.014-.002-.014-.002q-.018-.005-.025-.02-.009-.02 0-.048.01-.03.032-.074l.008-.017.009-.02q-.013.006-.028.018l-.029.022q-.01.007-.021.006-.013-.002-.021-.01-.007-.01-.005-.022.001-.012.01-.021l.029-.022q.015-.012.031-.02.04-.02.074-.01.016.002.024.02.008.015 0 .039t-.028.064l-.011.024-.01.023-.003.007-.002.006q.02-.003.06-.021t.109-.073l.066-.056.047-.045.018-.018q.012-.014.029-.01.008.002.013.008l.008.01q.007.014 0 .032-.004.018-.021.059l-.012.025-.01.024q0 .004-.002.007v.004q.018-.003.039-.016t.041-.03l.035-.029q.01-.009.021-.008t.021.01q.008.01.007.022 0 .012-.01.02-.03.027-.063.051-.032.024-.064.036-.032.01-.065.003-.016-.007-.022-.02t-.004-.03.011-.042q-.01.01-.022.018l-.024.02q-.136.108-.213.108zm.794-.066q-.007 0-.013-.002-.02-.004-.027-.023-.006-.017.003-.038t.026-.046l.01-.018q.007-.01.01-.018l.004-.005q0-.003.002-.005-.03-.005-.07-.002-.038.002-.087.015-.042.011-.091.029-.049.017-.103.04-.011.004-.022 0t-.016-.015 0-.022q.004-.013.015-.017.055-.025.106-.043t.097-.03q.121-.03.198-.01.023.007.032.028t-.004.049-.03.055l-.004.005-.004.007q.023-.005.067-.02t.123-.043q.01-.004.022.002.012.005.015.017.005.01 0 .022t-.017.016l-.083.029-.068.022-.06.017q-.02.004-.031.004z" style="font-style:normal;font-weight:400;font-family:&quot;Redacted Script&quot;;-inkscape-font-specification:&quot;Redacted Script&quot;;stroke:#722f0d" transform="scale(.99182 1.00825)"/></g></g></g></svg>