<svg xmlns="http://www.w3.org/2000/svg" xml:space="preserve" width="787.592" height="800.623" viewBox="0 0 208.384 211.831"><defs><filter id="a" width="1.437" height="1.772" x="-.218" y="-.386" style="color-interpolation-filters:sRGB"><feFlood flood-color="#1a1a1a" flood-opacity=".29" result="flood"/><feGaussianBlur in="SourceGraphic" result="blur" stdDeviation=".3"/><feOffset in="blur" result="offset"/><feComposite in="flood" in2="offset" operator="in" result="comp1"/><feComposite in="SourceGraphic" in2="comp1" result="comp2"/></filter><filter id="e" width="1.199" height="1.336" x="-.1" y="-.168" style="color-interpolation-filters:sRGB"><feFlood flood-color="#1a1a1a" flood-opacity=".29" result="flood"/><feGaussianBlur in="SourceGraphic" result="blur" stdDeviation=".3"/><feOffset in="blur" result="offset"/><feComposite in="flood" in2="offset" operator="in" result="comp1"/><feComposite in="SourceGraphic" in2="comp1" result="comp2"/></filter><filter id="b" width="1.199" height="1.336" x="-.1" y="-.168" style="color-interpolation-filters:sRGB"><feFlood flood-color="#1a1a1a" flood-opacity=".29" result="flood"/><feGaussianBlur in="SourceGraphic" result="blur" stdDeviation=".3"/><feOffset in="blur" result="offset"/><feComposite in="flood" in2="offset" operator="in" result="comp1"/><feComposite in="SourceGraphic" in2="comp1" result="comp2"/></filter><filter id="c" width="2.39" height="2.428" x="-.695" y="-.714" style="color-interpolation-filters:sRGB"><feFlood flood-color="#000" flood-opacity=".29" result="flood"/><feGaussianBlur in="SourceGraphic" result="blur" stdDeviation=".4"/><feOffset in="blur" result="offset"/><feComposite in="flood" in2="offset" operator="in" result="comp1"/><feComposite in="comp1" in2="comp1" operator="atop" result="comp2"/></filter><clipPath id="d" clipPathUnits="userSpaceOnUse"><path d="M-1041.685-507.633a.52.52 0 0 0-.52.52v3.24c0 .288.232.52.52.52h6.183c.288 0 .52-.232.52-.52v-2.4l-1.382-1.36z" style="opacity:0;fill:#6d7492;fill-opacity:1;stroke:none;stroke-width:1.01213;stroke-linecap:round;stroke-linejoin:round;stroke-dasharray:none;stroke-opacity:1"/></clipPath></defs><g transform="matrix(15.27975 0 0 15.53278 10756.735 8665.443)"><rect width="13.638" height="13.638" x="-706.966" y="-557.477" fill="none" rx="0" ry="0" style="fill:#000;fill-opacity:0;fill-rule:evenodd;stroke:none;stroke-width:.27551;stroke-linecap:round;stroke-linejoin:round;stroke-dasharray:none;stroke-opacity:1;paint-order:stroke fill markers" transform="translate(2.98 -.404)"/><g transform="translate(938.04 244.97)scale(1.57444)"><rect width="3.298" height="1.865" x="-1042.2" y="-508.782" rx=".52" ry=".4" style="fill:#a55010;fill-opacity:1;stroke:none;stroke-width:1.04308;stroke-linecap:round;stroke-linejoin:round;stroke-dasharray:none;stroke-opacity:1;filter:url(#a)" transform="matrix(1 0 0 1.2979 0 151.668)"/><path d="M-1041.685-507.633a.52.52 0 0 0-.52.52v3.24c0 .288.232.52.52.52h6.183c.288 0 .52-.232.52-.52v-2.4l-1.382-1.36z" style="fill:#787878;fill-opacity:1;stroke:none;stroke-width:1.01213;stroke-linecap:round;stroke-linejoin:round;stroke-dasharray:none;stroke-opacity:1;filter:url(#b)" transform="translate(-69.069 -34.417)scale(.9335)"/><path d="M-1036.371-507.618v1.344h1.381l-1.367-1.344z" clip-path="url(#d)" style="fill:#5f5f5f;fill-opacity:1;stroke:none;stroke-width:.573223;stroke-linecap:round;stroke-linejoin:round;stroke-dasharray:none;stroke-opacity:1;filter:url(#c)" transform="translate(-69.069 -34.417)scale(.9335)"/><path d="M-1038.28-507.633v1.865h3.298l-3.263-1.865z" style="fill:#5f5f5f;fill-opacity:1;stroke:none;stroke-width:1.04308;stroke-linecap:round;stroke-linejoin:round;stroke-dasharray:none;stroke-opacity:1" transform="matrix(.39107 0 0 .67295 -630.473 -166.664)"/><rect width="7.222" height="4.28" x="-1042.205" y="-507.633" rx=".52" ry=".52" style="fill:#d36d14;fill-opacity:1;stroke:none;stroke-width:1.01213;stroke-linecap:round;stroke-linejoin:round;stroke-dasharray:none;stroke-opacity:1;filter:url(#e)"/><g aria-label="Luduvo Studio" style="font-style:italic;font-weight:700;font-size:1.62722px;font-family:&quot;Titillium Web&quot;;-inkscape-font-specification:&quot;Titillium Web Bold Italic&quot;;fill:#722f0d;stroke:#722f0d;stroke-width:.0759416;stroke-linecap:round;stroke-linejoin:round"><path d="M-1041.382-506.761q-.02 0-.033-.011-.026-.022-.015-.054l.011-.04.03-.084q.01-.028.014-.047.01-.021.011-.037l-.107.04-.133.049-.134.05q-.018.007-.036-.002-.02-.01-.028-.029-.01-.018 0-.036.01-.02.028-.027l.151-.054.145-.054.11-.042.041-.016.016-.002q.01-.002.015.002.023.003.033.026.01.013.01.034 0 .02-.01.057 0 .02-.013.047-.01.024-.018.057v.023q.065-.036.16-.075.018-.008.036 0 .02.007.026.024.01.018 0 .038t-.026.027q-.073.033-.132.062l-.091.047-.034.018q-.01.008-.024.008zm.468.096q-.01 0-.016-.002-.01 0-.018-.002-.02-.007-.033-.028-.01-.013-.01-.036 0-.022.015-.074.015-.053.047-.155l-.083.03-.094.037q-.018.007-.036-.002-.02-.01-.028-.03-.01-.018 0-.035.01-.02.028-.028l.13-.049.1-.037.04-.015q.016-.007.03-.002.022.005.032.024.01.015 0 .026v.056q-.012.028-.025.068-.01.04-.023.08-.01.023-.013.039 0 .016-.01.03.03-.008.089-.038.05-.028.107-.064l.119-.078.026-.016q.015-.008.026-.018.018-.011.037-.007.02.003.033.021.01.017.01.036 0 .02-.021.03l-.028.02-.028.018-.12.078q-.06.038-.111.066-.106.055-.168.055zm.56-.003q-.012 0-.024-.003l-.023-.003q-.029-.008-.04-.034-.016-.033 0-.078.015-.048.051-.12.01-.014.013-.03.01-.016.015-.031-.02.008-.046.028l-.047.037q-.016.012-.036.01-.02-.003-.034-.018-.01-.016-.01-.036t.016-.034q.023-.016.047-.036.026-.02.052-.032.067-.034.122-.018.026.005.04.033.012.026 0 .065-.014.039-.047.105l-.018.04q-.01.019-.016.037v.021q.034-.005.1-.034t.178-.12q.06-.048.11-.092l.077-.074.03-.03q.02-.023.046-.014.013.002.021.011.01.008.013.016.011.023 0 .054-.01.03-.036.096l-.019.042q-.01.021-.016.04v.018q.031-.005.065-.026.036-.023.068-.05l.057-.048q.016-.015.036-.013t.034.016q.013.017.011.036 0 .02-.016.034-.05.044-.104.083-.052.04-.106.059-.052.018-.105.005-.026-.011-.037-.033t-.01-.05.02-.068q-.018.016-.037.03l-.04.033q-.224.178-.35.178zm.94.003q-.01 0-.016-.002-.01 0-.018-.002-.02-.007-.033-.028-.01-.013-.01-.036 0-.022.015-.074.015-.053.047-.155l-.083.03-.094.037q-.018.007-.036-.002-.02-.01-.028-.03-.01-.018 0-.035.01-.02.028-.028l.13-.049.1-.037.04-.015q.016-.007.03-.002.022.005.032.024.01.015 0 .026v.056q-.011.028-.024.068l-.024.08q-.01.023-.013.039 0 .016-.01.03.03-.008.09-.038.05-.028.107-.064.06-.037.119-.078l.026-.016q.015-.008.026-.018.018-.011.037-.007.02.003.033.021.01.017.01.036 0 .02-.021.03l-.028.02-.028.018-.12.078q-.06.038-.111.066-.106.055-.168.055zm.634 0q-.01 0-.016-.002-.01 0-.018-.002-.02-.007-.033-.028-.01-.013-.01-.036 0-.022.015-.074.015-.053.047-.155l-.083.03-.094.037q-.018.007-.036-.002-.019-.01-.028-.03-.01-.018 0-.035.01-.02.028-.028l.13-.049.101-.037.04-.015q.015-.007.03-.002.021.005.031.024.01.015 0 .026v.056l-.024.068q-.01.04-.024.08-.01.023-.013.039 0 .016-.01.03.031-.008.09-.038.05-.028.108-.064.059-.037.119-.078l.026-.016q.015-.008.026-.018.018-.011.038-.007t.033.021q.01.017.01.036 0 .02-.021.03l-.028.02-.028.018-.12.078q-.06.038-.111.066-.106.055-.168.055zm.801-.096q-.02 0-.033-.011-.026-.022-.015-.054l.011-.04.029-.084q.01-.028.015-.047.01-.021.011-.037l-.107.04-.134.049-.133.05q-.018.007-.036-.002-.02-.01-.028-.029-.01-.018 0-.036.01-.02.028-.027l.151-.054.145-.054.109-.042.042-.016.016-.002q.01-.002.015.002.023.003.033.026.01.013.01.034 0 .02-.01.057 0 .02-.013.047-.01.024-.018.057v.023q.065-.036.16-.075.017-.008.035 0 .02.007.026.024.01.018 0 .038t-.026.027q-.073.033-.131.062l-.091.047-.034.018q-.01.008-.024.008zM-1041.181-506.066q-.011 0-.021-.003-.031-.007-.044-.037-.01-.028 0-.062.016-.034.042-.077.01-.014.018-.03.01-.015.016-.028v-.016q-.05-.008-.114-.003-.063.003-.143.024-.07.018-.152.047-.08.028-.17.067-.017.007-.035 0t-.026-.024q-.01-.018 0-.038.01-.021.026-.028.09-.04.174-.07.085-.03.16-.048.2-.05.327-.017.037.01.052.046t-.01.08q-.021.044-.05.09v.009q0 .005-.01.011.037-.008.11-.032l.202-.072q.018-.006.036.003.02.008.026.028.01.018 0 .037-.01.018-.029.026l-.137.047-.11.036q-.065.02-.1.028-.033.007-.051.007zm.958 0q-.011 0-.021-.003-.031-.007-.044-.037-.01-.028 0-.062.016-.034.042-.077.01-.014.018-.03.01-.015.016-.028v-.016q-.049-.008-.114-.003-.063.003-.143.024-.07.018-.151.047-.08.028-.17.067-.018.007-.036 0t-.026-.024q-.01-.018 0-.038.01-.021.026-.028.091-.04.175-.07.085-.03.159-.048.2-.05.327-.017.037.01.052.046t-.01.08q-.02.044-.05.09v.009q0 .005-.01.011.037-.008.11-.032.074-.025.202-.072.018-.006.036.003.02.008.026.028.01.018 0 .037-.01.018-.029.026l-.136.047-.11.036q-.066.02-.1.028-.034.007-.052.007zm.592.112q-.01 0-.016-.002-.01 0-.018-.002-.02-.007-.033-.028-.01-.013-.01-.035t.015-.075l.047-.155-.083.031-.094.036q-.018.007-.036-.002-.02-.01-.028-.03-.01-.017 0-.035.01-.02.028-.028l.13-.049.101-.037.04-.015q.015-.007.03-.002.021.005.031.025.01.014 0 .026v.055l-.024.068q-.01.04-.024.08-.01.023-.013.04 0 .015-.01.028.031-.007.09-.037.05-.028.107-.063l.119-.079.026-.016q.015-.008.026-.018.018-.011.037-.007.02.003.033.021.01.017.01.036 0 .02-.021.031l-.028.02-.028.018-.12.078q-.06.037-.111.065-.106.055-.168.055zm.56-.003q-.01 0-.023-.003l-.023-.003q-.029-.008-.04-.034-.016-.033 0-.078.015-.047.051-.12.01-.014.013-.03.01-.016.015-.03-.02.007-.046.027l-.047.037q-.016.012-.036.01-.02-.003-.034-.018-.01-.016-.01-.035t.016-.035l.047-.035q.026-.02.052-.033.067-.034.122-.018.026.005.04.033.012.026 0 .065-.014.039-.046.106l-.018.039q-.01.02-.016.037v.021q.034-.005.1-.034t.178-.12q.06-.047.11-.091l.077-.075.03-.03q.02-.022.046-.014.013.002.021.011.01.008.013.017.011.022 0 .053-.01.03-.036.096l-.02.043q-.01.02-.016.039v.018q.031-.005.065-.026.036-.023.068-.05l.057-.048q.016-.014.036-.013t.034.017q.013.016.011.035 0 .02-.016.035-.05.044-.104.083-.052.039-.106.058-.052.018-.106.005-.026-.011-.037-.032-.01-.023-.01-.05t.02-.07l-.038.032-.039.032q-.224.178-.35.178zm.952-.141q-.01 0-.013-.002-.026-.007-.037-.02t-.013-.023q-.011-.035.01-.073.019-.039.05-.081.01-.013.018-.028l.016-.028v-.007q-.01.003-.024.01-.013.007-.031.02-.029.018-.062.047l-.067.059-.018.014q-.01.008-.016.017-.015.013-.034.013-.021-.002-.034-.018-.015-.015-.013-.034 0-.022.016-.035l.018-.016q.01-.008.016-.015.052-.047.103-.086.05-.04.099-.062.049-.02.094-.008.028.007.039.023.013.015.015.026.015.036-.01.077-.021.039-.054.086 0 .003-.01.011 0 .007-.01.013l.063-.024.094-.036q.02-.006.039.003.018.008.024.028.01.018 0 .037-.01.018-.026.026l-.094.033q-.042.014-.072.026-.016.007-.03.011l-.02.007-.02.007-.015.002zm.602.048q-.019 0-.033-.011-.026-.021-.015-.054l.011-.039.03-.084q.01-.028.014-.048.01-.02.011-.037l-.107.04-.134.05-.133.05q-.018.007-.036-.002-.02-.01-.028-.03-.01-.017 0-.035.01-.02.028-.028l.151-.054.145-.053.11-.043.041-.016.016-.002q.01-.002.015.002.023.003.033.026.01.013.01.034 0 .02-.01.057 0 .021-.013.047-.01.025-.018.057v.023q.065-.036.16-.075.018-.008.036 0 .02.007.026.025.01.018 0 .037-.01.02-.026.028-.073.032-.132.062l-.091.047-.034.018q-.01.008-.024.008z" style="font-style:normal;font-weight:400;font-family:&quot;Redacted Script&quot;;-inkscape-font-specification:&quot;Redacted Script&quot;"/></g><g aria-label="Confidential; DO NOT LEAK" style="font-style:italic;font-weight:700;font-size:.941131px;font-family:&quot;Titillium Web&quot;;-inkscape-font-specification:&quot;Titillium Web Bold Italic&quot;;letter-spacing:0;word-spacing:-.254503px;fill:#722f0d;stroke-width:.0200779;stroke-linecap:round;stroke-linejoin:round"><path d="M-1041.734-504.104q-.01 0-.013-.002l-.013-.002q-.017-.005-.024-.02-.01-.019 0-.045.01-.028.03-.07 0-.008.01-.017 0-.009.01-.018-.012.005-.026.016l-.027.022q-.01.007-.02.006-.013-.002-.02-.01-.01-.01 0-.021 0-.011.01-.02l.026-.02q.015-.012.03-.02.04-.02.071-.01.015.003.023.019.01.015 0 .038l-.027.06q0 .012-.01.023 0 .012-.01.022v.013q.02-.003.057-.02.04-.018.104-.07.035-.027.063-.052l.045-.043.017-.017q.01-.013.027-.008.01 0 .012.007 0 .005.01.009.01.013 0 .03 0 .018-.02.056-.01.013-.011.025t-.01.022v.007l-.001.004q.018-.003.038-.015t.039-.029l.033-.027q.01-.008.02-.008.012 0 .02.009.01.009.01.02t-.01.02q-.028.026-.06.048-.03.023-.06.034-.03.01-.061.003-.015-.007-.022-.019-.01-.013 0-.029 0-.016.01-.04l-.021.019-.023.018q-.13.103-.203.103zm.64-.054q-.01 0-.019-.007-.015-.012-.01-.031l.01-.023q.01-.021.017-.049 0-.016.01-.027 0-.012.01-.021l-.062.023-.077.028-.077.03q-.01.003-.02-.001-.012-.006-.017-.017v-.021q0-.011.016-.016l.088-.031.084-.031.063-.025.024-.009h.01q0-.002.01 0 .013.002.02.015v.053q0 .012-.01.027 0 .015-.01.033v.007q-.002.003 0 .007.037-.02.091-.043.01-.005.021 0 .011.004.015.014.01.01.001.022 0 .011-.015.016l-.076.036-.053.027-.02.01q-.01.005-.014.005zm.366 0q-.01 0-.019-.007-.015-.012-.01-.031l.01-.023q.01-.021.017-.049 0-.016.01-.027 0-.012.01-.021l-.062.023-.077.028-.077.03q-.01.003-.02-.001-.012-.006-.017-.017v-.021q0-.011.016-.016l.088-.031.084-.031.063-.025.024-.009h.01q0-.002.01 0 .013.002.02.015v.053q0 .012-.01.027 0 .015-.01.033-.002.004 0 .007-.002.003 0 .007.037-.02.091-.043.01-.005.021 0 .011.004.015.014.01.01.001.022 0 .011-.015.016l-.076.036-.053.027-.02.01q-.01.005-.014.005zm.277-.028-.01-.001q-.015-.004-.022-.011-.01-.008-.01-.014-.01-.02 0-.042t.029-.047q.01-.008.01-.016.01-.009.01-.016v-.004q-.01.002-.014.006-.01.004-.018.011-.017.01-.036.028l-.039.034q0 .004-.01.008 0 .005-.01.009-.01.008-.02.008-.012-.001-.02-.01-.01-.009-.01-.02 0-.013.01-.02 0-.005.01-.01 0-.004.01-.007.03-.028.059-.05.029-.024.057-.036t.055-.005q.016.004.023.013.01.008.01.015.01.02 0 .044-.012.023-.031.05v.015l.037-.014.054-.02q.012-.005.023.001.01.005.014.016v.022q0 .01-.016.015l-.054.019-.042.015-.017.007q-.01.002-.012.004-.01.002-.01.004l-.01.001zm.259 0-.01-.001q-.015-.004-.022-.011-.01-.008-.01-.014-.01-.02 0-.042t.029-.047q.01-.008.01-.016.01-.009.01-.016v-.004q-.01.002-.014.006-.01.004-.018.011-.017.01-.036.028l-.04.034q0 .004-.01.008 0 .005-.01.009-.01.008-.02.008-.011-.001-.02-.01t-.01-.02q.002-.013.01-.02 0-.005.01-.01 0-.004.01-.007.03-.028.06-.05.029-.024.058-.036.028-.012.054-.005.016.004.023.013.01.008.01.015.01.02 0 .044-.012.023-.031.05v.015l.037-.014.055-.02q.012-.005.023.001.01.005.014.016v.022q0 .01-.015.015l-.055.019-.041.015-.017.007q-.01.002-.012.004-.01.002-.011.004l-.01.001zm.209.082q-.01 0-.013-.002l-.013-.002q-.017-.005-.024-.02-.01-.019 0-.045.01-.028.03-.07 0-.008.01-.017 0-.009.01-.018-.012.005-.026.016l-.027.022q-.01.007-.021.006-.012-.002-.02-.01-.01-.01 0-.021 0-.011.01-.02l.027-.02q.015-.012.03-.02.039-.02.07-.01.016.003.024.02.01.014-.001.037l-.026.06q0 .012-.01.023 0 .012-.01.022v.013q.02-.003.057-.02.039-.018.103-.07.035-.027.063-.052l.045-.043.017-.017q.011-.013.027-.008.01 0 .012.007 0 .005.01.009.01.013 0 .031 0 .017-.02.055-.01.013-.012.025 0 .012-.01.023v.011q.018-.003.038-.016.021-.013.04-.029l.033-.027q.01-.008.021-.008t.02.009.01.02-.01.02q-.029.026-.06.048t-.06.034q-.03.01-.062.003-.015-.007-.022-.018-.01-.014 0-.03 0-.016.011-.04-.01.01-.022.019l-.023.019q-.13.102-.202.102zm.5 0q-.01 0-.013-.002l-.013-.002q-.017-.005-.024-.02-.01-.019 0-.045.01-.028.03-.07 0-.008.01-.017 0-.009.01-.018-.012.005-.026.016l-.027.022q-.01.007-.02.006-.013-.002-.02-.01-.01-.01 0-.021 0-.011.01-.02l.026-.02q.015-.012.03-.02.04-.02.071-.01.015.003.023.02.01.014 0 .037l-.026.06q0 .012-.01.023 0 .012-.01.022v.013q.02-.003.057-.02.039-.018.103-.07.035-.027.063-.052l.045-.043.017-.017q.011-.013.027-.008.01 0 .012.007 0 .005.01.009.01.013.001.031 0 .017-.021.055-.01.013-.011.025t-.01.023v.011q.017-.003.037-.016.021-.013.04-.029l.033-.027q.01-.008.021-.008t.02.009.01.02-.01.02q-.029.026-.06.048t-.06.034q-.03.01-.062.003-.015-.007-.022-.018-.01-.014 0-.03 0-.016.011-.04-.01.01-.022.019l-.023.019q-.13.102-.202.102zm.64-.054q-.01 0-.019-.007-.015-.012-.01-.03l.01-.024q.01-.021.017-.048 0-.016.01-.028 0-.012.01-.021l-.062.023-.077.028-.077.03q-.01.004-.02-.001-.012-.006-.017-.017v-.021q0-.011.016-.016l.088-.031.084-.031.063-.025.024-.009h.02q.013.002.02.016v.052q0 .012-.01.028 0 .014-.01.032-.002.004 0 .007-.002.003 0 .007.037-.02.091-.043.01-.005.021 0 .011.004.015.014.01.01.001.022 0 .011-.015.016l-.076.036-.053.027-.02.01q-.01.005-.014.005zm.482-.009q-.01 0-.012-.002-.018-.004-.025-.021-.01-.016 0-.036l.024-.044q.01-.008.01-.017.01-.01.01-.017v-.01q-.028-.005-.066-.002-.037.002-.083.014-.04.01-.088.027-.046.016-.098.039-.01.004-.02 0t-.016-.014q-.01-.01 0-.022 0-.012.014-.016.053-.023.1-.04.05-.018.093-.029.116-.029.19-.009.021.006.03.027.01.02 0 .046-.013.025-.03.052v.012q.022-.005.064-.018.042-.014.117-.042.01-.004.02.002.012.005.016.016v.022q0 .01-.017.015l-.08.027-.063.021-.057.016q-.02.004-.03.004zm.35-.019h-.01q-.016-.005-.023-.012-.01-.008-.01-.013-.01-.02 0-.042t.03-.047q.01-.008.01-.016.01-.01.01-.016v-.004q-.01.002-.015.006-.01.004-.018.01-.017.011-.036.028l-.039.034q0 .004-.01.008 0 .005-.01.009-.01.008-.02.008-.012 0-.02-.01-.01-.008-.01-.02.001-.012.01-.02 0-.005.01-.009 0-.005.01-.008.03-.027.06-.05.028-.023.057-.036.028-.012.054-.005.016.004.023.014.01.008.01.015.01.02 0 .044-.012.022-.03.05v.015l.036-.014.055-.021q.012-.004.023.002.01.005.014.016v.022q0 .01-.016.015l-.055.018q-.024.008-.04.016l-.018.007q-.01.002-.012.004-.01.002-.01.004h-.01zm.208.082q-.01 0-.013-.002-.01 0-.013-.002-.017-.005-.024-.02-.01-.018 0-.045t.03-.07q0-.007.01-.016 0-.01.01-.018-.012.005-.026.016l-.027.022q-.01.007-.02.006-.013-.002-.02-.01-.01-.01 0-.022 0-.01.01-.02l.026-.02q.015-.011.03-.019.04-.02.071-.01.015.003.023.019.01.015 0 .037l-.027.061q0 .012-.01.023 0 .011-.01.022v.013q.02-.003.057-.02.04-.018.104-.07.035-.027.063-.052l.045-.044.017-.017q.01-.013.027-.008.01.001.012.007 0 .005.01.01.01.013 0 .03 0 .017-.02.056-.01.012-.011.024t-.01.023v.007l-.001.004q.018-.003.038-.015t.039-.03q.02-.015.033-.027.01-.008.02-.008.012.001.02.01.01.008.01.02 0 .011-.01.02-.028.025-.06.048-.03.023-.06.034-.03.01-.061.003-.015-.007-.022-.019-.01-.013 0-.03 0-.015.01-.039-.01.01-.021.018l-.023.02q-.13.102-.202.102zm.64-.053q-.01 0-.019-.007-.015-.013-.01-.031l.01-.023q.01-.022.017-.049 0-.016.01-.027 0-.012.01-.022l-.062.024-.077.028-.077.03q-.01.003-.02-.002-.012-.006-.017-.017v-.02q0-.012.016-.016l.088-.032.084-.03.063-.025.024-.01h.02q.013.003.02.016v.053q0 .012-.01.027 0 .014-.01.033v.007q-.002.003 0 .007.037-.02.091-.043.01-.005.021 0 .011.004.015.014.01.01.001.021 0 .012-.015.016l-.076.036-.053.028-.02.01q-.01.005-.014.005zm.366 0q-.01 0-.019-.007-.015-.013-.01-.031l.01-.023q.01-.022.017-.049 0-.016.01-.027 0-.012.01-.022l-.062.024-.077.028-.077.03q-.01.003-.02-.002-.012-.006-.017-.017v-.02q0-.012.016-.016l.088-.032.084-.03.063-.025.024-.01h.02q.013.003.02.016v.053q0 .012-.01.027 0 .014-.01.033-.002.004 0 .007v.007q.037-.02.091-.043.01-.005.021 0 .011.004.015.014.01.01.001.021 0 .012-.015.016l-.076.036-.053.028-.02.01q-.01.005-.014.005zM-1041.734-503.744q-.01 0-.013-.002-.01 0-.013-.002-.017-.005-.024-.02-.01-.018 0-.045t.03-.07q0-.007.01-.016 0-.01.01-.018-.012.005-.026.016l-.027.022q-.01.007-.02.006-.013-.002-.02-.01-.01-.01 0-.022 0-.01.01-.02l.026-.02q.015-.011.03-.019.04-.02.071-.01.015.003.023.019.01.015 0 .037l-.027.061q0 .012-.01.023 0 .011-.01.022v.013q.02-.003.057-.02.04-.018.104-.07.035-.027.063-.053l.045-.043.017-.017q.01-.013.027-.008.01.001.012.007 0 .005.01.01.01.012 0 .03 0 .017-.02.056-.01.012-.011.024t-.01.023v.007l-.001.004q.018-.003.038-.015t.039-.03q.02-.015.033-.027.01-.008.02-.008.012.001.02.01.01.008.01.02 0 .011-.01.02-.028.025-.06.048-.03.022-.06.034-.03.01-.061.003-.015-.007-.022-.02-.01-.012 0-.028 0-.016.01-.04-.01.01-.021.018l-.023.019q-.13.102-.203.102zm.64-.053q-.01 0-.019-.007-.015-.013-.01-.031l.01-.023q.01-.022.017-.049 0-.016.01-.027 0-.012.01-.022l-.062.024-.077.028-.077.03q-.01.003-.02-.002-.012-.006-.017-.017v-.02q0-.012.016-.016.042-.016.088-.031l.084-.032.063-.024.024-.009.01-.001h.01q.013.003.02.016v.053q0 .012-.01.027 0 .014-.01.033v.007q-.002.003 0 .007.037-.02.091-.043.01-.005.021 0 .011.004.015.014.01.01.001.021 0 .012-.015.016l-.076.036-.053.028-.02.01q-.01.005-.014.005zm.57 0q-.012 0-.02-.007-.015-.013-.01-.031l.01-.023q.01-.022.017-.049 0-.016.01-.027 0-.012.01-.022l-.062.024-.077.028-.077.03q-.01.003-.02-.002-.012-.006-.017-.017v-.02q0-.012.016-.016.042-.016.088-.031l.084-.032.063-.024.024-.009.01-.001h.01q.013.003.02.016v.053q0 .012-.01.027 0 .014-.01.033-.002.004 0 .007-.002.003 0 .007.037-.02.091-.043.01-.005.021 0 .011.004.015.014.01.01.001.021 0 .012-.015.016l-.076.036-.053.028-.02.01q-.01.005-.014.005zm.365 0q-.01 0-.019-.007-.015-.013-.01-.031l.01-.023q.01-.022.017-.049 0-.016.01-.027 0-.012.01-.022l-.062.024-.077.028-.077.03q-.01.003-.02-.002-.012-.006-.017-.017v-.02q0-.012.016-.016.042-.016.088-.031l.084-.032.063-.024.024-.009.01-.001h.01q.013.003.02.016v.053q0 .012-.01.027 0 .014-.01.033-.002.004 0 .007-.002.003 0 .007.037-.02.091-.043.01-.005.021 0 .011.004.015.014.01.01.001.021 0 .012-.015.016l-.076.036-.053.028-.02.01q-.01.005-.014.005zm.482-.01-.012-.001q-.018-.004-.025-.022-.01-.016 0-.036l.024-.044q.01-.008.01-.017.01-.009.01-.017v-.01q-.028-.005-.066-.002-.037.002-.083.014-.04.01-.087.028-.046.016-.098.038-.01.004-.02 0t-.016-.014q-.01-.01 0-.021 0-.013.014-.016.053-.024.1-.04.05-.019.093-.03.116-.028.189-.008.022.006.03.026.01.02 0 .046-.012.026-.029.053v.012q.022-.005.064-.019l.117-.041q.01-.004.02.002.012.005.016.016v.021q0 .01-.017.015l-.08.028-.063.02q-.038.012-.057.016t-.03.004zm.642.01q-.011 0-.02-.007-.014-.013-.01-.031l.01-.023q.01-.022.018-.049 0-.016.01-.027 0-.012.01-.022l-.062.024-.077.028-.077.03q-.01.003-.021-.002-.011-.006-.016-.017v-.02q0-.012.016-.016l.087-.031.084-.032.063-.024.024-.009.01-.001h.01q.013.003.019.016v.053q0 .012-.01.027 0 .014-.01.033v.014q.038-.02.092-.043.01-.005.02 0 .012.004.016.014.01.01 0 .021 0 .012-.014.016l-.076.036-.053.028-.02.01q-.01.005-.014.005zm.226.053q-.01 0-.013-.002-.01 0-.013-.002-.017-.005-.024-.02-.01-.018 0-.045t.03-.07q0-.007.01-.016 0-.01.01-.018-.012.005-.026.016l-.027.022q-.01.007-.02.006-.013-.002-.02-.01-.01-.01 0-.022 0-.01.01-.02l.026-.02q.015-.011.03-.019.04-.02.071-.01.015.003.023.019.01.015 0 .037l-.027.061q0 .012-.01.023 0 .011-.01.022v.013q.02-.003.057-.02.04-.018.104-.07.035-.027.063-.053l.045-.043.017-.017q.011-.013.027-.008.01.001.012.007 0 .005.01.01.01.012.001.03 0 .017-.021.056-.01.012-.011.024t-.01.023v.011q.017-.003.037-.015.021-.013.04-.03.02-.015.033-.027.01-.008.021-.008.011.001.02.01.01.008.01.02 0 .011-.01.02-.029.025-.06.048-.03.022-.06.034-.03.01-.062.003-.015-.007-.022-.02-.01-.012 0-.028 0-.016.011-.04-.01.01-.022.018l-.023.019q-.13.102-.202.102zm.501 0q-.01 0-.013-.002-.01 0-.013-.002-.017-.005-.024-.02-.01-.018 0-.045t.03-.07q0-.007.01-.016 0-.01.01-.018-.012.005-.026.016l-.027.022q-.01.007-.02.006-.013-.002-.02-.01-.01-.01 0-.022 0-.01.01-.02l.026-.02q.015-.011.03-.019.04-.02.071-.01.015.003.023.019.01.015 0 .037l-.027.061q0 .012-.01.023 0 .011-.01.022v.013q.02-.003.057-.02.04-.018.104-.07.035-.027.063-.053l.045-.043.017-.017q.01-.013.027-.008.01.001.012.007 0 .005.01.01.01.012 0 .03 0 .017-.02.056-.01.012-.011.024t-.01.023v.007l-.001.004q.018-.003.038-.015t.04-.03q.02-.015.033-.027.01-.008.02-.008.012.001.02.01.01.008.01.02 0 .011-.01.02-.028.025-.06.048-.03.022-.06.034-.03.01-.061.003-.015-.007-.022-.02-.01-.012 0-.028 0-.016.01-.04-.01.01-.021.018l-.023.019q-.13.102-.203.102zm.64-.053q-.011 0-.019-.007-.015-.013-.01-.031l.01-.023q.01-.022.017-.049 0-.016.01-.027 0-.012.01-.022l-.062.024-.077.028-.077.03q-.01.003-.021-.002-.011-.006-.016-.017v-.02q0-.012.016-.016.042-.016.088-.031l.084-.032.063-.024.024-.009.01-.001h.01q.013.003.019.016v.053q0 .012-.01.027 0 .014-.01.033v.014q.038-.02.092-.043.01-.005.021 0 .011.004.015.014.01.01 0 .021 0 .012-.014.016l-.076.036-.053.028-.02.01q-.01.005-.014.005z" style="font-style:normal;font-weight:400;font-family:&quot;Redacted Script&quot;;-inkscape-font-specification:&quot;Redacted Script&quot;;stroke:#722f0d"/></g></g></g></svg>