<svg xmlns="http://www.w3.org/2000/svg" xml:space="preserve" width="787.59" height="800.623" viewBox="0 0 208.383 211.831"><defs><filter id="a" width="1.199" height="1.336" x="-.1" y="-.168" style="color-interpolation-filters:sRGB"><feFlood flood-color="#1a1a1a" flood-opacity=".29" result="flood"/><feGaussianBlur in="SourceGraphic" result="blur" stdDeviation=".3"/><feOffset in="blur" result="offset"/><feComposite in="flood" in2="offset" operator="in" result="comp1"/><feComposite in="SourceGraphic" in2="comp1" result="comp2"/></filter><filter id="b" width="2.39" height="2.428" x="-.695" y="-.714" style="color-interpolation-filters:sRGB"><feFlood flood-color="#000" flood-opacity=".29" result="flood"/><feGaussianBlur in="SourceGraphic" result="blur" stdDeviation=".4"/><feOffset in="blur" result="offset"/><feComposite in="flood" in2="offset" operator="in" result="comp1"/><feComposite in="comp1" in2="comp1" operator="atop" result="comp2"/></filter><clipPath id="c" clipPathUnits="userSpaceOnUse"><path d="M-1041.685-507.633a.52.52 0 0 0-.52.52v3.24c0 .288.232.52.52.52h6.183c.288 0 .52-.232.52-.52v-2.4l-1.382-1.36z" style="opacity:0;fill:#6d7492;fill-opacity:1;stroke:none;stroke-width:1.01213;stroke-linecap:round;stroke-linejoin:round;stroke-dasharray:none;stroke-opacity:1"/></clipPath></defs><g transform="matrix(15.27975 0 0 15.53278 10756.735 8665.443)"><rect width="13.638" height="13.638" x="-706.966" y="-557.477" fill="none" rx="0" ry="0" style="fill:#131313;fill-opacity:0;fill-rule:evenodd;stroke:none;stroke-width:.27551;stroke-linecap:round;stroke-linejoin:round;stroke-dasharray:none;stroke-opacity:1;paint-order:stroke fill markers" transform="translate(2.98 -.404)"/><path d="M-1041.685-507.633a.52.52 0 0 0-.52.52v3.24c0 .288.232.52.52.52h6.183c.288 0 .52-.232.52-.52v-2.4l-1.382-1.36z" style="fill:#33a055;fill-opacity:1;stroke:none;stroke-width:1.01213;stroke-linecap:round;stroke-linejoin:round;stroke-dasharray:none;stroke-opacity:1;filter:url(#a)" transform="translate(938.04 244.97)scale(1.57444)"/><path d="M-1036.371-507.618v1.344h1.381l-1.367-1.344z" clip-path="url(#c)" style="fill:#287944;fill-opacity:1;stroke:none;stroke-width:.573223;stroke-linecap:round;stroke-linejoin:round;stroke-dasharray:none;stroke-opacity:1;filter:url(#b)" transform="translate(938.04 244.97)scale(1.57444)"/><path d="M-1038.28-507.633v1.865h3.298l-3.263-1.865z" style="fill:#287944;fill-opacity:1;stroke:none;stroke-width:1.04308;stroke-linecap:round;stroke-linejoin:round;stroke-dasharray:none;stroke-opacity:1" transform="matrix(.65958 0 0 1.135 -8.828 21.922)"/><g style="opacity:1;fill:none;stroke:#19522c;stroke-width:2;stroke-linecap:round;stroke-linejoin:round;stroke-opacity:1"><path d="M21 8a2 2 0 0 0-1-1.73l-7-4a2 2 0 0 0-2 0l-7 4A2 2 0 0 0 3 8v8a2 2 0 0 0 1 1.73l7 4a2 2 0 0 0 2 0l7-4A2 2 0 0 0 21 16Z" style="stroke:#19522c;stroke-opacity:1" transform="matrix(.07661 0 0 .07537 -702.353 -553.796)"/><path d="m3.3 7 8.7 5 8.7-5M12 22V12" style="stroke:#19522c;stroke-opacity:1" transform="matrix(.07661 0 0 .07537 -702.353 -553.796)"/></g><path d="m-696.539-553.144.09-.392h.348l-.09.392zm.907.589q-.556 0-.556-.351 0-.12.084-.2.088-.076.228-.146-.05-.05-.05-.117 0-.07.038-.131.038-.062.076-.097l.039-.036q-.174-.103-.174-.32t.146-.359q.146-.143.384-.143.11 0 .26.036l.05.01.373-.015-.064.276h-.148q.01.056.01.13 0 .198-.154.336-.15.136-.381.136l-.11-.013q-.039.051-.039.087t.05.051.191.036q.364.054.364.323 0 .228-.167.366-.164.14-.45.14m-.098-.604q-.05.028-.1.076-.046.052-.046.105 0 .054.057.095.056.041.179.041.302 0 .302-.18 0-.033-.026-.053-.023-.02-.053-.028-.031-.008-.164-.03-.13-.021-.149-.027m.277-.666q.09 0 .146-.06t.056-.148q0-.143-.18-.143-.089 0-.145.059t-.056.148q0 .144.179.144m1.09.348q0 .072.075.072l.174-.013-.028.246q-.136.059-.282.059-.143 0-.22-.077-.074-.08-.074-.19 0-.112.038-.271l.113-.482h-.138l.076-.291h.131l.074-.328h.343l-.074.328h.269l-.072.291h-.266l-.118.513q-.02.087-.02.143m.375.333.412-1.793h.343l-.412 1.793zm1.452-1.823q.1 0 .21.046l.033.013-.062.25q-.09-.017-.158-.017-.067 0-.095.05-.026.05-.051.152l-.013.048h.269l-.072.292h-.261l-.23.989-.162.54h-.31l.359-1.523h-.118l.072-.298h.11l.013-.05q.061-.27.158-.38.1-.112.308-.112" aria-label=".gtlf" style="font-style:italic;font-weight:700;font-size:2.56077px;font-family:&quot;Titillium Web&quot;;-inkscape-font-specification:&quot;Titillium Web Bold Italic&quot;;fill:#19522c;fill-rule:evenodd;stroke-width:.0302453;stroke-linecap:round;stroke-linejoin:round;paint-order:stroke fill markers" transform="scale(1.00825 .99182)"/></g></svg>