<svg xmlns="http://www.w3.org/2000/svg" xml:space="preserve" width="787.59" height="800.623" viewBox="0 0 208.383 211.831"><defs><filter id="a" width="1.199" height="1.336" x="-.1" y="-.168" style="color-interpolation-filters:sRGB"><feFlood flood-color="#1a1a1a" flood-opacity=".29" result="flood"/><feGaussianBlur in="SourceGraphic" result="blur" stdDeviation=".3"/><feOffset in="blur" result="offset"/><feComposite in="flood" in2="offset" operator="in" result="comp1"/><feComposite in="SourceGraphic" in2="comp1" result="comp2"/></filter><filter id="b" width="2.39" height="2.428" x="-.695" y="-.714" style="color-interpolation-filters:sRGB"><feFlood flood-color="#000" flood-opacity=".29" result="flood"/><feGaussianBlur in="SourceGraphic" result="blur" stdDeviation=".4"/><feOffset in="blur" result="offset"/><feComposite in="flood" in2="offset" operator="in" result="comp1"/><feComposite in="comp1" in2="comp1" operator="atop" result="comp2"/></filter><clipPath id="c" clipPathUnits="userSpaceOnUse"><path d="M-1041.685-507.633a.52.52 0 0 0-.52.52v3.24c0 .288.232.52.52.52h6.183c.288 0 .52-.232.52-.52v-2.4l-1.382-1.36z" style="opacity:0;fill:#6d7492;fill-opacity:1;stroke:none;stroke-width:1.01213;stroke-linecap:round;stroke-linejoin:round;stroke-dasharray:none;stroke-opacity:1"/></clipPath></defs><g style="opacity:1" transform="matrix(15.27975 0 0 15.53278 10756.735 8665.443)"><rect width="13.638" height="13.638" x="-706.966" y="-557.477" fill="none" rx="0" ry="0" style="fill:#131313;fill-opacity:0;fill-rule:evenodd;stroke:none;stroke-width:.27551;stroke-linecap:round;stroke-linejoin:round;stroke-dasharray:none;stroke-opacity:1;paint-order:stroke fill markers" transform="translate(2.98 -.404)"/><path d="M-1041.685-507.633a.52.52 0 0 0-.52.52v3.24c0 .288.232.52.52.52h6.183c.288 0 .52-.232.52-.52v-2.4l-1.382-1.36z" style="fill:#3458a1;fill-opacity:1;stroke:none;stroke-width:1.01213;stroke-linecap:round;stroke-linejoin:round;stroke-dasharray:none;stroke-opacity:1;filter:url(#a)" transform="translate(938.04 244.97)scale(1.57444)"/><path d="M-1036.371-507.618v1.344h1.381l-1.367-1.344z" clip-path="url(#c)" style="fill:#28417b;fill-opacity:1;stroke:none;stroke-width:.573223;stroke-linecap:round;stroke-linejoin:round;stroke-dasharray:none;stroke-opacity:1;filter:url(#b)" transform="translate(938.04 244.97)scale(1.57444)"/><path d="M-1038.28-507.633v1.865h3.298l-3.263-1.865z" style="fill:#28417b;fill-opacity:1;stroke:none;stroke-width:1.04308;stroke-linecap:round;stroke-linejoin:round;stroke-dasharray:none;stroke-opacity:1" transform="matrix(.65958 0 0 1.135 -8.828 21.922)"/><g fill="#fff" style="fill:#1a2c53;fill-opacity:1"><path d="M258.1 627.8h117.3v26.7H227.8V417h30.3zM515.5 654.5v-23.8c-16 22.5-31.9 31.3-57 31.3-33.2 0-54.4-18.2-54.4-46.6V483.8h27v120.9c0 20.5 13.7 33.6 35.2 33.6 28.3 0 46.6-22.8 46.6-57.7v-96.8h27v170.7zM738.4 659.1c-8.8 2.3-13 2.9-18.6 2.9-17.6 0-26.1-7.8-28-25.1-19.2 17.6-36.5 25.1-58 25.1-34.5 0-56-19.5-56-50.5 0-22.2 10.1-37.5 30-45.6 10.4-4.2 16.3-5.5 54.7-10.4 21.5-2.6 28.3-7.5 28.3-18.9v-7.2c0-16.3-13.7-25.4-38.1-25.4-25.4 0-37.8 9.4-40.1 30.3h-27.4c.7-16.9 3.9-26.7 11.7-35.5 11.4-12.7 31.9-19.9 56.7-19.9 42 0 64.2 16.3 64.2 46.6v100.4c0 8.5 5.2 13.4 14.7 13.4 1.6 0 2.9 0 5.9-.7zm-47.6-89c-9.1 4.2-15 5.5-43.7 9.4-29 4.2-41.1 13.4-41.1 31.3 0 17.3 12.4 27.4 33.6 27.4 16 0 29.3-5.2 40.4-15.3 8.1-7.5 10.8-13 10.8-22.2z" style="fill:#1a2c53;fill-opacity:1" transform="matrix(.0073 0 0 .00718 -703.838 -552.842)"/></g><g style="fill:none;stroke:#1a2c53;stroke-width:2;stroke-linecap:round;stroke-linejoin:round;stroke-opacity:1"><path d="m18 16 4-4-4-4M6 8l-4 4 4 4M14.5 4l-5 16" style="stroke:#1a2c53;stroke-opacity:1" transform="matrix(.08618 0 0 .08478 -702.295 -553.91)"/></g></g></svg>