<svg xmlns="http://www.w3.org/2000/svg" xml:space="preserve" width="787.59" height="800.623" viewBox="0 0 208.383 211.831"><defs><clipPath id="c" clipPathUnits="userSpaceOnUse"><path d="M-1041.685-507.633a.52.52 0 0 0-.52.52v3.24c0 .288.232.52.52.52h6.183c.288 0 .52-.232.52-.52v-2.4l-1.382-1.36z" style="opacity:0;fill:#6d7492;fill-opacity:1;stroke:none;stroke-width:1.01213;stroke-linecap:round;stroke-linejoin:round;stroke-dasharray:none;stroke-opacity:1"/></clipPath><clipPath id="d" clipPathUnits="userSpaceOnUse"><path d="M7.34-5.63c-1.67 0-3.015 1.366-3.015 3.063v19.11c0 1.698 1.344 3.064 3.015 3.064h35.866c1.67 0 3.014-1.366 3.014-3.063V2.385l-8.016-8.016z" style="opacity:0;fill:#33779e;fill-opacity:1;stroke:none;stroke-width:5.91974;stroke-linecap:round;stroke-linejoin:round;stroke-dasharray:none;stroke-opacity:1"/></clipPath><filter id="a" width="1.199" height="1.336" x="-.1" y="-.168" style="color-interpolation-filters:sRGB"><feFlood flood-color="#1a1a1a" flood-opacity=".29" result="flood"/><feGaussianBlur in="SourceGraphic" result="blur" stdDeviation=".3"/><feOffset in="blur" result="offset"/><feComposite in="flood" in2="offset" operator="in" result="comp1"/><feComposite in="SourceGraphic" in2="comp1" result="comp2"/></filter><filter id="b" width="2.39" height="2.428" x="-.695" y="-.714" style="color-interpolation-filters:sRGB"><feFlood flood-color="#000" flood-opacity=".29" result="flood"/><feGaussianBlur in="SourceGraphic" result="blur" stdDeviation=".4"/><feOffset in="blur" result="offset"/><feComposite in="flood" in2="offset" operator="in" result="comp1"/><feComposite in="comp1" in2="comp1" operator="atop" result="comp2"/></filter></defs><g transform="matrix(15.27975 0 0 15.53278 10756.735 8665.443)"><rect width="13.638" height="13.638" x="-706.966" y="-557.477" fill="none" rx="0" ry="0" style="fill:#131313;fill-opacity:0;fill-rule:evenodd;stroke:none;stroke-width:.27551;stroke-linecap:round;stroke-linejoin:round;stroke-dasharray:none;stroke-opacity:1;paint-order:stroke fill markers" transform="translate(2.98 -.404)"/><path d="M-1041.685-507.633a.52.52 0 0 0-.52.52v3.24c0 .288.232.52.52.52h6.183c.288 0 .52-.232.52-.52v-2.4l-1.382-1.36z" style="fill:#33779e;fill-opacity:1;stroke:none;stroke-width:1.01213;stroke-linecap:round;stroke-linejoin:round;stroke-dasharray:none;stroke-opacity:1;filter:url(#a)" transform="translate(938.04 244.97)scale(1.57444)"/><path d="M-1036.371-507.618v1.344h1.381l-1.367-1.344z" clip-path="url(#c)" style="fill:#275878;fill-opacity:1;stroke:none;stroke-width:.573223;stroke-linecap:round;stroke-linejoin:round;stroke-dasharray:none;stroke-opacity:1;filter:url(#b)" transform="translate(938.04 244.97)scale(1.57444)"/><path d="M-1038.28-507.633v1.865h3.298l-3.263-1.865z" style="fill:#275878;fill-opacity:1;stroke:none;stroke-width:1.04308;stroke-linecap:round;stroke-linejoin:round;stroke-dasharray:none;stroke-opacity:1" transform="matrix(.65958 0 0 1.135 -8.828 21.922)"/><g clip-path="url(#d)" style="opacity:1;fill:none;stroke:#183b51;stroke-width:2;stroke-linecap:round;stroke-linejoin:round;stroke-opacity:1" transform="matrix(.27141 0 0 .26699 -704.027 -552.766)"><path d="M3.128 3h17.744c.071 0 .128.057.128.128v17.744c0 .071-.057.128-.128.128H3.128A.127.127 0 0 1 3 20.872V3.128C3 3.057 3.057 3 3.128 3"/><path d="M3 9h18M3 15h18M9 3v18M15 3v18" style="stroke:#183b51;stroke-opacity:1"/></g></g></svg>