<svg xmlns="http://www.w3.org/2000/svg" xml:space="preserve" width="787.59" height="800.623" viewBox="0 0 208.383 211.831"><defs><filter id="a" width="1.199" height="1.336" x="-.1" y="-.168" style="color-interpolation-filters:sRGB"><feFlood flood-color="#1a1a1a" flood-opacity=".29" result="flood"/><feGaussianBlur in="SourceGraphic" result="blur" stdDeviation=".3"/><feOffset in="blur" result="offset"/><feComposite in="flood" in2="offset" operator="in" result="comp1"/><feComposite in="SourceGraphic" in2="comp1" result="comp2"/></filter><filter id="b" width="2.39" height="2.428" x="-.695" y="-.714" style="color-interpolation-filters:sRGB"><feFlood flood-color="#000" flood-opacity=".29" result="flood"/><feGaussianBlur in="SourceGraphic" result="blur" stdDeviation=".4"/><feOffset in="blur" result="offset"/><feComposite in="flood" in2="offset" operator="in" result="comp1"/><feComposite in="comp1" in2="comp1" operator="atop" result="comp2"/></filter><clipPath id="c" clipPathUnits="userSpaceOnUse"><path d="M-1041.685-507.633a.52.52 0 0 0-.52.52v3.24c0 .288.232.52.52.52h6.183c.288 0 .52-.232.52-.52v-2.4l-1.382-1.36z" style="opacity:0;fill:#6d7492;fill-opacity:1;stroke:none;stroke-width:1.01213;stroke-linecap:round;stroke-linejoin:round;stroke-dasharray:none;stroke-opacity:1"/></clipPath></defs><g transform="matrix(15.27975 0 0 15.53278 10756.735 8665.443)"><rect width="13.638" height="13.638" x="-706.966" y="-557.477" fill="none" rx="0" ry="0" style="fill:#131313;fill-opacity:0;fill-rule:evenodd;stroke:none;stroke-width:.27551;stroke-linecap:round;stroke-linejoin:round;stroke-dasharray:none;stroke-opacity:1;paint-order:stroke fill markers" transform="translate(2.98 -.404)"/><path d="M-1041.685-507.633a.52.52 0 0 0-.52.52v3.24c0 .288.232.52.52.52h6.183c.288 0 .52-.232.52-.52v-2.4l-1.382-1.36z" style="fill:#33779e;fill-opacity:1;stroke:none;stroke-width:1.01213;stroke-linecap:round;stroke-linejoin:round;stroke-dasharray:none;stroke-opacity:1;filter:url(#a)" transform="translate(938.04 244.97)scale(1.57444)"/><path d="M-1036.371-507.618v1.344h1.381l-1.367-1.344z" clip-path="url(#c)" style="fill:#275878;fill-opacity:1;stroke:none;stroke-width:.573223;stroke-linecap:round;stroke-linejoin:round;stroke-dasharray:none;stroke-opacity:1;filter:url(#b)" transform="translate(938.04 244.97)scale(1.57444)"/><path d="M-1038.28-507.633v1.865h3.298l-3.263-1.865z" style="fill:#275878;fill-opacity:1;stroke:none;stroke-width:1.04308;stroke-linecap:round;stroke-linejoin:round;stroke-dasharray:none;stroke-opacity:1" transform="matrix(.65958 0 0 1.135 -8.828 21.922)"/><path d="M-1032.712-508.41q.03-.121.03-.168t-.016-.07q-.013-.023-.044-.023-.054 0-.135.073l-.026.025-.125.546h-.218l.187-.813h.208l-.01.078q.062-.062.145-.088.034-.01.081-.01t.09.03q.042.029.054.058l.011.028.04-.033q.023-.02.09-.05.068-.033.124-.033.195 0 .195.23 0 .073-.031.205l-.091.398h-.218l.09-.382q.03-.122.03-.168 0-.045-.013-.07-.013-.024-.044-.024-.03 0-.07.024-.04.023-.065.048l-.026.022q-.011.098-.024.152l-.091.398h-.218zm.99.128q0 .04.032.065.034.024.084.024.112 0 .23-.016l.042-.005-.024.161q-.152.045-.3.045t-.216-.066q-.067-.067-.067-.195 0-.129.026-.23.026-.1.077-.182t.14-.128q.09-.05.203-.05.285 0 .285.243 0 .155-.104.213-.104.059-.347.059h-.057v.061zm.095-.223q.112 0 .156-.024.046-.025.046-.083 0-.07-.08-.07-.145 0-.188.177zm.82-.168q-.05 0-.075.023-.026.023-.026.054 0 .03.023.044t.117.044q.096.029.143.068.05.037.05.124 0 .152-.102.23-.099.079-.265.079-.07 0-.141-.015-.07-.013-.105-.028l-.036-.013.041-.159q.157.03.27.03t.114-.08q0-.021-.023-.033t-.078-.03q-.115-.032-.17-.076-.055-.043-.055-.125 0-.151.099-.236.099-.086.239-.086.077 0 .15.013.072.012.107.025l.036.013-.04.16q-.167-.025-.273-.025zm.893-.187q.198 0 .198.23 0 .058-.034.205l-.09.398h-.219l.088-.382q.03-.122.03-.17t-.014-.07q-.01-.022-.042-.022-.055 0-.138.073l-.028.025-.125.546h-.218l.262-1.138h.218l-.091.401q.036-.035.096-.065t.107-.03z" aria-label="mesh" style="font-style:italic;font-weight:700;font-size:1.62646px;font-family:&quot;Titillium Web&quot;;-inkscape-font-specification:&quot;Titillium Web Bold Italic&quot;;fill:#183b51;fill-rule:evenodd;stroke-width:.0192102;stroke-linecap:round;stroke-linejoin:round;paint-order:stroke fill markers" transform="matrix(1.58743 0 0 1.56157 938.04 244.97)"/><g style="fill:none;stroke:#183b51;stroke-width:2;stroke-linecap:round;stroke-linejoin:round;stroke-opacity:1" transform="matrix(.0766 0 0 .07536 -702.353 -553.796)"><rect width="18" height="18" x="3" y="3" rx=".452" ry=".452" style="stroke:#183b51;stroke-opacity:1"/><path d="M3 9h18M3 15h18M9 3v18M15 3v18" style="stroke:#183b51;stroke-opacity:1"/></g></g></svg>