<svg xmlns="http://www.w3.org/2000/svg" xml:space="preserve" width="787.59" height="800.623" viewBox="0 0 208.383 211.831"><defs><filter id="a" width="1.199" height="1.336" x="-.1" y="-.168" style="color-interpolation-filters:sRGB"><feFlood flood-color="#1a1a1a" flood-opacity=".29" result="flood"/><feGaussianBlur in="SourceGraphic" result="blur" stdDeviation=".3"/><feOffset in="blur" result="offset"/><feComposite in="flood" in2="offset" operator="in" result="comp1"/><feComposite in="SourceGraphic" in2="comp1" result="comp2"/></filter><filter id="b" width="2.39" height="2.428" x="-.695" y="-.714" style="color-interpolation-filters:sRGB"><feFlood flood-color="#000" flood-opacity=".29" result="flood"/><feGaussianBlur in="SourceGraphic" result="blur" stdDeviation=".4"/><feOffset in="blur" result="offset"/><feComposite in="flood" in2="offset" operator="in" result="comp1"/><feComposite in="comp1" in2="comp1" operator="atop" result="comp2"/></filter><clipPath id="c" clipPathUnits="userSpaceOnUse"><path d="M-1041.685-507.633a.52.52 0 0 0-.52.52v3.24c0 .288.232.52.52.52h6.183c.288 0 .52-.232.52-.52v-2.4l-1.382-1.36z" style="opacity:0;fill:#6d7492;fill-opacity:1;stroke:none;stroke-width:1.01213;stroke-linecap:round;stroke-linejoin:round;stroke-dasharray:none;stroke-opacity:1"/></clipPath></defs><g style="opacity:1" transform="matrix(15.27975 0 0 15.53278 10756.735 8665.443)"><rect width="13.638" height="13.638" x="-706.966" y="-557.477" fill="none" rx="0" ry="0" style="fill:#131313;fill-opacity:0;fill-rule:evenodd;stroke:none;stroke-width:.27551;stroke-linecap:round;stroke-linejoin:round;stroke-dasharray:none;stroke-opacity:1;paint-order:stroke fill markers" transform="translate(2.98 -.404)"/><path d="M-1041.685-507.633a.52.52 0 0 0-.52.52v3.24c0 .288.232.52.52.52h6.183c.288 0 .52-.232.52-.52v-2.4l-1.382-1.36z" style="fill:#33a055;fill-opacity:1;stroke:none;stroke-width:1.01213;stroke-linecap:round;stroke-linejoin:round;stroke-dasharray:none;stroke-opacity:1;filter:url(#a)" transform="translate(938.04 244.97)scale(1.57444)"/><path d="M-1036.371-507.618v1.344h1.381l-1.367-1.344z" clip-path="url(#c)" style="fill:#287944;fill-opacity:1;stroke:none;stroke-width:.573223;stroke-linecap:round;stroke-linejoin:round;stroke-dasharray:none;stroke-opacity:1;filter:url(#b)" transform="translate(938.04 244.97)scale(1.57444)"/><path d="M-1038.28-507.633v1.865h3.298l-3.263-1.865z" style="fill:#287944;fill-opacity:1;stroke:none;stroke-width:1.04308;stroke-linecap:round;stroke-linejoin:round;stroke-dasharray:none;stroke-opacity:1" transform="matrix(.65958 0 0 1.135 -8.828 21.922)"/><g style="opacity:1;fill:none;stroke:#19522c;stroke-width:2;stroke-linecap:round;stroke-linejoin:round;stroke-opacity:1"><path d="M21 8a2 2 0 0 0-1-1.73l-7-4a2 2 0 0 0-2 0l-7 4A2 2 0 0 0 3 8v8a2 2 0 0 0 1 1.73l7 4a2 2 0 0 0 2 0l7-4A2 2 0 0 0 21 16Z" style="stroke:#19522c;stroke-opacity:1" transform="matrix(.07661 0 0 .07537 -702.353 -553.796)"/><path d="m3.3 7 8.7 5 8.7-5M12 22V12" style="stroke:#19522c;stroke-opacity:1" transform="matrix(.07661 0 0 .07537 -702.353 -553.796)"/></g><path d="m-696.539-553.144.09-.392h.348l-.09.392zm1.193-1.309q.505 0 .505.484 0 .208-.07.397-.068.19-.222.325-.151.134-.356.134-.504 0-.504-.484 0-.205.074-.397t.225-.325q.154-.134.348-.134m-.143 1.048q.138 0 .223-.174.084-.177.084-.395 0-.187-.164-.187-.138 0-.222.177-.085.174-.085.392 0 .187.164.187m1.616-1.05q.207 0 .294.12.09.118.09.297 0 .402-.18.663-.179.26-.486.26-.123 0-.279-.021-.156-.02-.25-.044l-.096-.02.4-1.737h.343l-.14.612q.058-.05.145-.09.09-.04.159-.04m-.51 1.022q.113.025.208.025.097 0 .164-.064.066-.064.102-.161.07-.197.07-.364t-.137-.166q-.05 0-.117.033-.067.03-.108.064l-.043.03zm.945.289.295-1.28h.343l-.295 1.28q-.023.102-.038.154-.013.05-.044.11-.03.061-.058.09-.029.03-.093.071-.087.061-.322.164l-.108-.274q.197-.103.243-.151.05-.046.077-.164m.318-1.39.082-.351h.345l-.079.35z" aria-label=".obj" style="font-style:italic;font-weight:700;font-size:2.56077px;font-family:&quot;Titillium Web&quot;;-inkscape-font-specification:&quot;Titillium Web Bold Italic&quot;;fill:#19522c;fill-rule:evenodd;stroke-width:.0302453;stroke-linecap:round;stroke-linejoin:round;paint-order:stroke fill markers" transform="scale(1.00825 .99182)"/></g></svg>