<svg xmlns="http://www.w3.org/2000/svg" xml:space="preserve" width="787.59" height="800.623" viewBox="0 0 208.383 211.831"><defs><filter id="a" width="1.199" height="1.336" x="-.1" y="-.168" style="color-interpolation-filters:sRGB"><feFlood flood-color="#1a1a1a" flood-opacity=".29" result="flood"/><feGaussianBlur in="SourceGraphic" result="blur" stdDeviation=".3"/><feOffset in="blur" result="offset"/><feComposite in="flood" in2="offset" operator="in" result="comp1"/><feComposite in="SourceGraphic" in2="comp1" result="comp2"/></filter><filter id="b" width="2.39" height="2.428" x="-.695" y="-.714" style="color-interpolation-filters:sRGB"><feFlood flood-color="#000" flood-opacity=".29" result="flood"/><feGaussianBlur in="SourceGraphic" result="blur" stdDeviation=".4"/><feOffset in="blur" result="offset"/><feComposite in="flood" in2="offset" operator="in" result="comp1"/><feComposite in="comp1" in2="comp1" operator="atop" result="comp2"/></filter><clipPath id="c" clipPathUnits="userSpaceOnUse"><path d="M-1041.685-507.633a.52.52 0 0 0-.52.52v3.24c0 .288.232.52.52.52h6.183c.288 0 .52-.232.52-.52v-2.4l-1.382-1.36z" style="opacity:0;fill:#6d7492;fill-opacity:1;stroke:none;stroke-width:1.01213;stroke-linecap:round;stroke-linejoin:round;stroke-dasharray:none;stroke-opacity:1"/></clipPath></defs><g transform="matrix(15.27975 0 0 15.53278 10756.735 8665.443)"><rect width="13.638" height="13.638" x="-706.966" y="-557.477" fill="none" rx="0" ry="0" style="fill:#131313;fill-opacity:0;fill-rule:evenodd;stroke:none;stroke-width:.27551;stroke-linecap:round;stroke-linejoin:round;stroke-dasharray:none;stroke-opacity:1;paint-order:stroke fill markers" transform="translate(2.98 -.404)"/><path d="M-1041.685-507.633a.52.52 0 0 0-.52.52v3.24c0 .288.232.52.52.52h6.183c.288 0 .52-.232.52-.52v-2.4l-1.382-1.36z" style="fill:#9e3a33;fill-opacity:1;stroke:none;stroke-width:1.01213;stroke-linecap:round;stroke-linejoin:round;stroke-dasharray:none;stroke-opacity:1;filter:url(#a)" transform="translate(938.04 244.97)scale(1.57444)"/><path d="M-1036.371-507.618v1.344h1.381l-1.367-1.344z" clip-path="url(#c)" style="fill:#782f27;fill-opacity:1;stroke:none;stroke-width:.573223;stroke-linecap:round;stroke-linejoin:round;stroke-dasharray:none;stroke-opacity:1;filter:url(#b)" transform="translate(938.04 244.97)scale(1.57444)"/><path d="M-1038.28-507.633v1.865h3.298l-3.263-1.865z" style="fill:#782f27;fill-opacity:1;stroke:none;stroke-width:1.04308;stroke-linecap:round;stroke-linejoin:round;stroke-dasharray:none;stroke-opacity:1" transform="matrix(.65958 0 0 1.135 -8.828 21.922)"/><path d="M-1032.947-508.238q0 .045.046.045l.111-.008-.018.156q-.086.038-.179.038-.09 0-.14-.05-.047-.05-.047-.12 0-.071.024-.172l.072-.306h-.088l.05-.185h.082l.047-.208h.218l-.047.208h.171l-.045.185h-.17l-.074.326q-.013.055-.013.09zm.497-.044q0 .04.033.065.034.024.085.024.112 0 .23-.016l.041-.005-.024.161q-.15.045-.299.045-.148 0-.216-.066-.067-.067-.067-.195 0-.129.026-.23.026-.1.076-.182.052-.081.14-.128.09-.05.203-.05.285 0 .285.243 0 .155-.104.213-.105.059-.347.059h-.057v.062zm.096-.223q.112 0 .156-.024.045-.025.045-.083 0-.07-.08-.07-.145 0-.188.177zm.53-.335h.222l.063.249.169-.25h.221l-.32.424.13.39h-.222l-.063-.239-.165.24h-.226l.318-.408zm.885.602q0 .045.047.045l.11-.008-.017.156q-.086.038-.18.038-.09 0-.139-.05-.047-.05-.047-.12 0-.071.024-.172l.072-.306h-.088l.049-.185h.083l.047-.208h.218l-.047.208h.17l-.045.185h-.17l-.074.326q-.013.055-.013.09zm.488.23q-.198 0-.198-.229 0-.063.034-.205l.09-.398h.219l-.088.382q-.03.122-.03.17 0 .046.014.07.015.022.045.022.055 0 .136-.073l.026-.025.126-.546h.218l-.188.813h-.208l.01-.08q-.037.038-.099.069-.06.03-.107.03zm.584-.019.187-.813h.216l-.029.117q.05-.044.126-.086.077-.044.13-.05l-.063.227q-.078.024-.19.075l-.04.018-.118.512zm.804-.255q0 .04.033.065.033.024.084.024.113 0 .23-.016l.042-.005-.024.161q-.151.045-.3.045-.147 0-.216-.066-.067-.067-.067-.195 0-.129.026-.23.026-.1.076-.182.052-.081.14-.128.09-.05.203-.05.285 0 .285.243 0 .155-.104.213-.104.059-.347.059h-.057v.062zm.096-.223q.112 0 .156-.024.045-.025.045-.083 0-.07-.081-.07-.145 0-.187.177z" aria-label="texture" style="font-style:italic;font-weight:700;font-size:1.62646px;font-family:&quot;Titillium Web&quot;;-inkscape-font-specification:&quot;Titillium Web Bold Italic&quot;;fill:#511e18;fill-rule:evenodd;stroke-width:.0192102;stroke-linecap:round;stroke-linejoin:round;paint-order:stroke fill markers" transform="matrix(1.58743 0 0 1.56157 938.04 244.97)"/><g style="fill:none;stroke:#511e18;stroke-width:2;stroke-linecap:round;stroke-linejoin:round;stroke-opacity:1" transform="matrix(.07548 0 0 .07425 -702.34 -553.783)"><rect width="18" height="18" x="3" y="3" rx=".459" ry=".459" style="stroke:#511e18;stroke-opacity:1"/><circle cx="9" cy="9" r="2" style="stroke:#511e18;stroke-opacity:1"/><path d="m21 15-3.086-3.086a2 2 0 0 0-2.828 0L6 21" style="stroke:#511e18;stroke-opacity:1"/></g></g></svg>