<svg xmlns="http://www.w3.org/2000/svg" xml:space="preserve" width="787.59" height="800.623" viewBox="0 0 208.383 211.831"><defs><filter id="a" width="1.199" height="1.336" x="-.1" y="-.168" style="color-interpolation-filters:sRGB"><feFlood flood-color="#1a1a1a" flood-opacity=".29" result="flood"/><feGaussianBlur in="SourceGraphic" result="blur" stdDeviation=".3"/><feOffset in="blur" result="offset"/><feComposite in="flood" in2="offset" operator="in" result="comp1"/><feComposite in="SourceGraphic" in2="comp1" result="comp2"/></filter><filter id="b" width="2.39" height="2.428" x="-.695" y="-.714" style="color-interpolation-filters:sRGB"><feFlood flood-color="#000" flood-opacity=".29" result="flood"/><feGaussianBlur in="SourceGraphic" result="blur" stdDeviation=".4"/><feOffset in="blur" result="offset"/><feComposite in="flood" in2="offset" operator="in" result="comp1"/><feComposite in="comp1" in2="comp1" operator="atop" result="comp2"/></filter><clipPath id="c" clipPathUnits="userSpaceOnUse"><path d="M-1041.685-507.633a.52.52 0 0 0-.52.52v3.24c0 .288.232.52.52.52h6.183c.288 0 .52-.232.52-.52v-2.4l-1.382-1.36z" style="opacity:0;fill:#6d7492;fill-opacity:1;stroke:none;stroke-width:1.01213;stroke-linecap:round;stroke-linejoin:round;stroke-dasharray:none;stroke-opacity:1"/></clipPath></defs><g transform="matrix(15.27975 0 0 15.53278 10756.735 8665.443)"><rect width="13.638" height="13.638" x="-706.966" y="-557.477" fill="none" rx="0" ry="0" style="fill:#000;fill-opacity:0;fill-rule:evenodd;stroke:none;stroke-width:.27551;stroke-linecap:round;stroke-linejoin:round;stroke-dasharray:none;stroke-opacity:1;paint-order:stroke fill markers" transform="translate(2.98 -.404)"/><path d="M-1041.685-507.633a.52.52 0 0 0-.52.52v3.24c0 .288.232.52.52.52h6.183c.288 0 .52-.232.52-.52v-2.4l-1.382-1.36z" style="fill:#5c5c5c;fill-opacity:1;stroke:none;stroke-width:1.01213;stroke-linecap:round;stroke-linejoin:round;stroke-dasharray:none;stroke-opacity:1;filter:url(#a)" transform="translate(938.04 244.97)scale(1.57444)"/><path d="M-1036.371-507.618v1.344h1.381l-1.367-1.344z" clip-path="url(#c)" style="fill:#434343;fill-opacity:1;stroke:none;stroke-width:.573223;stroke-linecap:round;stroke-linejoin:round;stroke-dasharray:none;stroke-opacity:1;filter:url(#b)" transform="translate(938.04 244.97)scale(1.57444)"/><path d="M-1038.28-507.633v1.865h3.298l-3.263-1.865z" style="fill:#434343;fill-opacity:1;stroke:none;stroke-width:1.04308;stroke-linecap:round;stroke-linejoin:round;stroke-dasharray:none;stroke-opacity:1" transform="matrix(.65958 0 0 1.135 -8.828 21.922)"/><path d="M-1040.695-503.77h-.118q-.042 0-.048-.042l-.17-.67-.17.67q-.01.042-.05.042h-.116q-.036 0-.048-.042l-.263-.807h-.112q-.024 0-.024-.024v-.086q0-.024.024-.024h.373q.024 0 .024.024v.086q0 .024-.024.024h-.092l.202.673.176-.673h-.078q-.024 0-.024-.024v-.086q0-.024.024-.024h.352q.024 0 .024.024v.086q0 .024-.024.024h-.078l.176.673.2-.673h-.09q-.026 0-.026-.024v-.086q0-.024.026-.024h.372q.024 0 .024.024v.086q0 .024-.024.024h-.11l-.264.807q-.016.042-.048.042zm.955 0h-.381q-.026 0-.026-.024v-.086q0-.024.026-.024h.11v-.715h-.11q-.026 0-.026-.024v-.086q0-.024.026-.024h.234q.026 0 .026.024v.25h.01q.01-.032.042-.088.036-.056.078-.092.044-.038.124-.068.082-.03.183-.03.026 0 .026.026v.106q0 .026-.026.026h-.042q-.171 0-.273.11t-.102.25v.336h.106q.026 0 .026.024v.085q0 .024-.026.024zm1.292-.471h-.72q.01.165.104.255.098.09.22.09t.208-.052q.088-.052.118-.102.016-.02.036-.006l.054.054q.012.012.012.022 0 .008-.01.022t-.036.044q-.028.03-.08.068-.05.038-.132.064-.08.026-.172.026-.21 0-.352-.138-.14-.138-.14-.37 0-.233.14-.367.14-.136.342-.136.204 0 .32.132.116.13.116.352v.016q0 .026-.028.026m-.138-.122q-.01-.124-.078-.198-.072-.074-.192-.074t-.206.068-.102.204zm1.387.593h-.19q-.086 0-.086-.084v-.525q0-.116-.056-.18t-.164-.064q-.154 0-.24.126-.01.012-.026.044v.55h.106q.026 0 .026.023v.086q0 .024-.026.024h-.382q-.026 0-.026-.024v-.086q0-.024.026-.024h.11v-.715h-.11q-.026 0-.026-.024v-.086q0-.024.026-.024h.234q.026 0 .026.024v.136h.01q.104-.174.322-.174.16 0 .25.094t.092.254v.515h.112q.026 0 .026.024v.086q0 .024-.026.024z" aria-label="wren" style="font-style:italic;font-weight:700;font-size:1.99864px;font-family:Sanchez;-inkscape-font-specification:&quot;Sanchez Bold Italic&quot;;fill:#282828;stroke-width:.0426482;stroke-linecap:round;stroke-linejoin:round" transform="translate(938.04 244.97)scale(1.57444)"/><g style="fill:none;stroke:#282828;stroke-width:2;stroke-linecap:round;stroke-linejoin:round;stroke-opacity:1"><path d="m18 16 4-4-4-4M6 8l-4 4 4 4M14.5 4l-5 16" style="stroke:#282828;stroke-opacity:1" transform="matrix(.08618 0 0 .08478 -702.318 -553.91)"/></g></g></svg>